<svg width="24" height="24" viewBox="0 0 24 24" fill="none" xmlns="http://www.w3.org/2000/svg">
<path fill-rule="evenodd" clip-rule="evenodd" d="M7.07111 12C7.07111 9.29847 9.28705 7.12506 12 7.12506C14.7129 7.12506 16.9288 9.29847 16.9288 12C16.9288 14.7014 14.7129 16.8748 12 16.8748C9.28705 16.8748 7.07111 14.7014 7.07111 12ZM12 8.62506C10.097 8.62506 8.57111 10.1452 8.57111 12C8.57111 13.8547 10.097 15.3748 12 15.3748C13.9029 15.3748 15.4288 13.8547 15.4288 12C15.4288 10.1452 13.9029 8.62506 12 8.62506Z" fill="black"/>
<path fill-rule="evenodd" clip-rule="evenodd" d="M10.3005 0.371216C11.4277 0.209943 12.5723 0.209912 13.6988 0.371172C14.3505 0.464468 14.8479 0.940492 15.0226 1.53079L15.5783 3.4082C15.694 3.79933 16.0012 4.15214 16.4418 4.40416C16.8757 4.6523 17.3278 4.73782 17.7197 4.64342L19.6822 4.17075C20.2762 4.02769 20.9329 4.21591 21.3408 4.72724C22.043 5.6075 22.6141 6.58287 23.0371 7.62364C23.2885 8.24203 23.1194 8.92004 22.6859 9.36748L21.3046 10.7933C21.03 11.0768 20.8786 11.5055 20.8786 12.0006C20.8786 12.4955 21.0297 12.9233 21.3046 13.2072L21.8958 13.8178C22.7994 14.7511 23.1982 16.2088 22.522 17.4768C22.1848 18.1091 21.7897 18.7106 21.3411 19.2735C20.9332 19.7853 20.2762 19.9739 19.6818 19.8307L17.7193 19.358C17.3276 19.2637 16.8756 19.3491 16.4413 19.597C16.001 19.8483 15.6941 20.2007 15.5785 20.5916L15.0228 22.47C14.8479 23.061 14.3497 23.5373 13.6974 23.6301C12.5718 23.7903 11.4282 23.7903 10.3019 23.6301C9.64955 23.5373 9.15118 23.061 8.9763 22.4699L8.4206 20.5916C8.30497 20.2007 7.99809 19.8483 7.55779 19.597C7.12345 19.3491 6.6715 19.2637 6.2798 19.3581L4.31733 19.8307C3.72291 19.9739 3.06588 19.7853 2.65804 19.2735C1.95614 18.3928 1.38529 17.4178 0.962278 16.3781C0.710696 15.7598 0.879588 15.0817 1.31294 14.6341L2.69454 13.2072C2.96937 12.9233 3.12047 12.4955 3.12047 12.0006C3.12047 11.5055 2.96915 11.0768 2.69447 10.7933L1.31318 9.36748C0.879726 8.92004 0.710626 8.24203 0.961993 7.62364C1.38505 6.58287 1.95606 5.6075 2.65829 4.72724C3.06621 4.21591 3.72292 4.02769 4.31691 4.17075L6.27937 4.64342C6.67132 4.73782 7.12335 4.6523 7.55725 4.40415C7.99792 4.15214 8.30506 3.79933 8.42083 3.40819L8.97646 1.53091C9.15121 0.94048 9.64879 0.464469 10.3005 0.371216ZM13.4862 1.85603C12.5008 1.71497 11.4993 1.71497 10.513 1.85609C10.4834 1.86033 10.4354 1.88706 10.4148 1.95662L9.85915 3.8339C9.60703 4.68574 8.9865 5.31475 8.30191 5.70626C7.62468 6.09356 6.78062 6.30704 5.92814 6.10172L3.96567 5.62905C3.89553 5.61215 3.84897 5.64 3.83088 5.66268C3.21833 6.43052 2.72042 7.28108 2.35158 8.18848C2.3406 8.2155 2.33924 8.27083 2.39054 8.32378L3.77183 9.74961C4.38342 10.3809 4.62047 11.222 4.62047 12.0006C4.62047 12.7795 4.38335 13.6193 3.77219 14.2505L2.39059 15.6775C2.33931 15.7305 2.34068 15.7858 2.35168 15.8128C2.72051 16.7194 3.21843 17.5699 3.83107 18.3386C3.84926 18.3615 3.89594 18.3893 3.96609 18.3724L5.92856 17.8998C6.78075 17.6945 7.62433 17.9079 8.30124 18.2942C8.98647 18.6852 9.60698 19.3143 9.85898 20.166L10.4147 22.0444C10.4353 22.114 10.4834 22.1408 10.5132 22.145C11.4994 22.2853 12.5007 22.2853 13.486 22.1451C13.5157 22.1409 13.5638 22.1141 13.5844 22.0445L14.1401 20.166C14.3921 19.3143 15.0126 18.6852 15.6979 18.2942C16.3748 17.9079 17.2183 17.6945 18.0705 17.8998L20.033 18.3724C20.1032 18.3893 20.1498 18.3615 20.168 18.3386C20.5596 17.8473 20.9044 17.3225 21.1985 16.771C21.5058 16.1947 21.3685 15.4296 20.8182 14.8612L20.2269 14.2505C19.6158 13.6193 19.3786 12.7795 19.3786 12.0006C19.3786 11.222 19.6157 10.3809 20.2273 9.74961L21.6086 8.32378C21.6599 8.27083 21.6585 8.2155 21.6475 8.18848C21.2787 7.28109 20.7808 6.43052 20.1682 5.66268C20.1501 5.64 20.1036 5.61215 20.0334 5.62905L18.0709 6.10172C17.2185 6.30704 16.3744 6.09357 15.6972 5.70626C15.0126 5.31475 14.3921 4.68574 14.14 3.83391L13.5843 1.9565C13.5637 1.88694 13.5157 1.86026 13.4862 1.85603Z" fill="black"/>
</svg>
