<svg width="24" height="24" viewBox="0 0 24 24" fill="none" xmlns="http://www.w3.org/2000/svg">
<path d="M22.8431 0.803143C22.9408 0.705512 23.0991 0.705512 23.1967 0.803143C23.2943 0.900774 23.2943 1.05907 23.1967 1.1567L12.3535 11.9999L23.1967 22.8431C23.2943 22.9407 23.2943 23.099 23.1967 23.1966C23.0991 23.2943 22.9408 23.2943 22.8431 23.1966L11.9999 12.3534L1.15676 23.1966C1.05913 23.2943 0.900836 23.2943 0.803204 23.1966C0.705573 23.099 0.705573 22.9407 0.803204 22.8431L11.6464 11.9999L0.803205 1.1567C0.705574 1.05907 0.705574 0.900774 0.803205 0.803143C0.900836 0.705512 1.05913 0.705512 1.15676 0.803143L11.9999 11.6463L22.8431 0.803143Z" fill="black"/>
</svg>
