<svg width="24" height="24" viewBox="0 0 24 24" fill="none" xmlns="http://www.w3.org/2000/svg">
<path d="M20.7627 0.762807C21.4461 0.0793898 22.5539 0.0793898 23.2373 0.762807C23.9205 1.44624 23.9206 2.55406 23.2373 3.23742L14.4746 12.0001L23.2373 20.7628L23.3574 20.8956C23.9179 21.583 23.8779 22.5968 23.2373 23.2374C22.5966 23.878 21.5828 23.918 20.8955 23.3575L20.7627 23.2374L12 14.4747L3.23728 23.2374L3.10447 23.3575C2.41718 23.9181 1.40339 23.878 0.762671 23.2374C0.121971 22.5967 0.0819498 21.583 0.642553 20.8956L0.762671 20.7628L9.52537 12.0001L0.762671 3.23742C0.0792671 2.55401 0.0792952 1.44623 0.762671 0.762807C1.44609 0.0793898 2.55386 0.0793898 3.23728 0.762807L12 9.5255L20.7627 0.762807Z" fill="black"/>
</svg>
