<svg width="24" height="24" viewBox="0 0 24 24" fill="none" xmlns="http://www.w3.org/2000/svg">
<path d="M22.4697 0.46967C22.7626 0.176777 23.2374 0.176777 23.5303 0.46967C23.8232 0.762563 23.8232 1.23744 23.5303 1.53033L13.0607 12L23.5303 22.4697C23.8232 22.7626 23.8232 23.2374 23.5303 23.5303C23.2374 23.8232 22.7626 23.8232 22.4697 23.5303L12 13.0607L1.53033 23.5303C1.23744 23.8232 0.762564 23.8232 0.469669 23.5303C0.176777 23.2374 0.176777 22.7626 0.469669 22.4697L10.9393 12L0.46967 1.53033C0.176777 1.23744 0.176777 0.762563 0.46967 0.46967C0.762563 0.176777 1.23744 0.176777 1.53033 0.46967L12 10.9393L22.4697 0.46967Z" fill="black"/>
</svg>
