<svg width="24" height="24" viewBox="0 0 24 24" fill="none" xmlns="http://www.w3.org/2000/svg">
<path fill-rule="evenodd" clip-rule="evenodd" d="M16.7279 21.522C16.3137 21.522 15.9779 21.8578 15.9779 22.272C15.9779 22.6862 16.3137 23.022 16.7279 23.022H17.9279H17.96C18.7728 23.022 19.4285 23.022 19.9594 22.9786C20.506 22.9339 20.9862 22.8396 21.4304 22.6132C22.136 22.2537 22.7097 21.68 23.0692 20.9744C23.2955 20.5302 23.3899 20.0501 23.4345 19.5034C23.4779 18.9725 23.4779 18.3169 23.4779 17.5041V17.5041V17.472V7.07197V7.03987V7.03986C23.4779 6.22703 23.4779 5.57141 23.4345 5.0405C23.3899 4.49387 23.2955 4.01373 23.0692 3.56951C22.7097 2.8639 22.136 2.29022 21.4304 1.9307C20.9862 1.70436 20.506 1.61 19.9594 1.56534C19.4285 1.52196 18.7729 1.52196 17.96 1.52197H17.9279H16.7279C16.3137 1.52197 15.9779 1.85776 15.9779 2.27197C15.9779 2.68619 16.3137 3.02197 16.7279 3.02197H17.9279C18.7804 3.02197 19.3746 3.02256 19.8372 3.06035C20.2911 3.09744 20.5519 3.16657 20.7494 3.26721C21.1727 3.48292 21.517 3.82713 21.7327 4.25049C21.8333 4.44801 21.9024 4.70878 21.9395 5.16265C21.9773 5.62528 21.9779 6.21952 21.9779 7.07197L21.9779 17.472C21.9779 18.3244 21.9773 18.9187 21.9395 19.3813C21.9024 19.8352 21.8333 20.0959 21.7327 20.2935C21.517 20.7168 21.1727 21.061 20.7494 21.2767C20.5519 21.3774 20.2911 21.4465 19.8372 21.4836C19.3746 21.5214 18.7804 21.522 17.9279 21.522H16.7279ZM16.4879 12.0487C16.7808 12.3416 16.7808 12.8165 16.4879 13.1094L10.414 19.1833C10.1211 19.4762 9.64625 19.4762 9.35336 19.1833C9.06047 18.8904 9.06047 18.4155 9.35336 18.1226L14.1473 13.3287H1.27211C0.857899 13.3287 0.522112 12.9929 0.522112 12.5787C0.522112 12.1645 0.857899 11.8287 1.27211 11.8287H14.1466L9.35336 7.03546C9.06047 6.74256 9.06047 6.26769 9.35336 5.9748C9.64625 5.6819 10.1211 5.6819 10.414 5.9748L16.4879 12.0487Z" fill="black"/>
</svg>
