<svg width="25" height="25" viewBox="0 0 25 25" fill="none" xmlns="http://www.w3.org/2000/svg">
<path d="M17.2494 24.0225C16.2829 24.0225 15.4994 23.239 15.4994 22.2725C15.4994 21.306 16.2829 20.5225 17.2494 20.5225H18.4496C19.3184 20.5225 19.8653 20.521 20.2777 20.4873C20.6694 20.4553 20.7837 20.4026 20.8168 20.3857C21.0519 20.2659 21.2428 20.075 21.3627 19.8398C21.3795 19.8068 21.4322 19.6925 21.4642 19.3008C21.4979 18.8884 21.4994 18.3415 21.4994 17.4727V7.07227C21.4994 6.20343 21.4979 5.65658 21.4642 5.24414C21.4322 4.85247 21.3795 4.73812 21.3627 4.70508C21.2428 4.46997 21.0519 4.27901 20.8168 4.15918C20.7837 4.14235 20.6694 4.08965 20.2777 4.05762C19.8653 4.02392 19.3184 4.02246 18.4496 4.02246H17.2494C16.2829 4.02246 15.4994 3.23896 15.4994 2.27246C15.4994 1.30597 16.2829 0.522463 17.2494 0.522463H18.4496C19.2605 0.522463 19.974 0.521328 20.5619 0.569338C21.1703 0.619047 21.797 0.729985 22.4056 1.04004C23.2994 1.49544 24.0264 2.22244 24.4818 3.11621C24.7919 3.72483 24.9028 4.35156 24.9525 4.95996C25.0005 5.54789 24.9994 6.26132 24.9994 7.07227V17.4727C24.9994 18.2836 25.0005 18.997 24.9525 19.585C24.9028 20.1934 24.7919 20.8201 24.4818 21.4287C24.0264 22.3225 23.2994 23.0495 22.4056 23.5049C21.797 23.8149 21.1703 23.9259 20.5619 23.9756C19.974 24.0236 19.2605 24.0225 18.4496 24.0225H17.2494Z" fill="black"/>
<path d="M11.9886 20.0107C11.3013 20.5715 10.2866 20.5314 9.64587 19.8906C9.00562 19.2499 8.9654 18.236 9.52576 17.5488L9.64587 17.416L12.7328 14.3291H2.49841L2.3197 14.3203C1.43731 14.2306 0.74842 13.4852 0.748413 12.5791C0.748483 11.6128 1.53211 10.8293 2.49841 10.8291H12.7328L9.64587 7.74317C8.96282 7.05987 8.96294 5.95193 9.64587 5.26856C10.3292 4.58519 11.438 4.58529 12.1215 5.26856L18.1947 11.3418C18.8781 12.0252 18.8781 13.134 18.1947 13.8174L12.1215 19.8906L11.9886 20.0107Z" fill="black"/>
</svg>
