<svg width="24" height="24" viewBox="0 0 24 24" fill="none" xmlns="http://www.w3.org/2000/svg">
<path d="M16.2494 23.7725C15.421 23.7725 14.7494 23.1009 14.7494 22.2725C14.7494 21.444 15.421 20.7725 16.2494 20.7725H17.4496C18.314 20.7725 18.8723 20.771 19.2972 20.7363C19.704 20.7031 19.8557 20.6472 19.9301 20.6094C20.2123 20.4656 20.4425 20.2354 20.5863 19.9531C20.6241 19.8788 20.68 19.727 20.7133 19.3203C20.7479 18.8954 20.7494 18.3371 20.7494 17.4727V7.07227C20.7494 6.2078 20.7479 5.64954 20.7133 5.22461C20.68 4.81789 20.6241 4.66612 20.5863 4.5918C20.4425 4.30956 20.2123 4.07936 19.9301 3.93555C19.8557 3.89776 19.704 3.84183 19.2972 3.8086C18.8723 3.7739 18.3141 3.77246 17.4496 3.77246H16.2494C15.421 3.77246 14.7494 3.10089 14.7494 2.27246C14.7494 1.44404 15.421 0.772463 16.2494 0.772463H17.4496C18.2648 0.772463 18.9669 0.771345 19.5424 0.818362C20.1352 0.866827 20.725 0.973609 21.2924 1.2627C22.1391 1.69413 22.8277 2.38276 23.2592 3.22949C23.5482 3.7969 23.655 4.38665 23.7035 4.97949C23.7505 5.55495 23.7494 6.25702 23.7494 7.07227V17.4727C23.7494 18.2879 23.7505 18.99 23.7035 19.5654C23.655 20.1583 23.5482 20.748 23.2592 21.3154C22.8277 22.1622 22.1391 22.8508 21.2924 23.2822C20.725 23.5713 20.1352 23.6781 19.5424 23.7266C18.9669 23.7736 18.2648 23.7725 17.4496 23.7725H16.2494Z" fill="black"/>
<path d="M10.8304 19.8174C10.2413 20.2976 9.37172 20.2628 8.82263 19.7139C8.27397 19.1648 8.23999 18.296 8.72009 17.707L8.82263 17.5928L12.3373 14.0791H1.49841L1.34509 14.0713C0.58898 13.9944 -0.00138662 13.3555 -0.00158691 12.5791C-0.00144266 11.7509 0.670238 11.0793 1.49841 11.0791H12.3353L8.82263 7.56641C8.23725 6.98078 8.23746 6.03107 8.82263 5.44531C9.40841 4.85953 10.3589 4.85955 10.9447 5.44531L17.0179 11.5195C17.6035 12.1053 17.6037 13.0549 17.0179 13.6406L10.9447 19.7139L10.8304 19.8174Z" fill="black"/>
</svg>
