<svg width="24" height="24" viewBox="0 0 24 24" fill="none" xmlns="http://www.w3.org/2000/svg">
<path fill-rule="evenodd" clip-rule="evenodd" d="M16.7279 21.022C16.0375 21.022 15.4779 21.5816 15.4779 22.272C15.4779 22.9623 16.0375 23.522 16.7279 23.522L17.9279 23.522L17.9778 23.522H17.9778C18.7754 23.522 19.4486 23.522 20.0001 23.4769C20.5776 23.4298 21.1309 23.327 21.6574 23.0587C22.4571 22.6513 23.1072 22.0011 23.5147 21.2014C23.7829 20.675 23.8857 20.1217 23.9329 19.5442C23.9779 18.9927 23.9779 18.3195 23.9779 17.5219V17.5218L23.9779 17.472L23.9779 7.07197L23.9779 7.02211V7.02205C23.9779 6.22447 23.9779 5.55128 23.9329 4.99979C23.8857 4.42223 23.7829 3.86896 23.5147 3.34251C23.1072 2.54282 22.4571 1.89265 21.6574 1.48519C21.1309 1.21695 20.5776 1.11418 20.0001 1.06699C19.4486 1.02194 18.7754 1.02195 17.9778 1.02197H17.9778H17.9279H16.7279C16.0375 1.02197 15.4779 1.58161 15.4779 2.27197C15.4779 2.96233 16.0375 3.52197 16.7279 3.52197H17.9279C18.7886 3.52197 19.359 3.52294 19.7965 3.55869C20.2195 3.59325 20.4071 3.65397 20.5224 3.71271C20.8517 3.88049 21.1194 4.1482 21.2872 4.47749C21.3459 4.59277 21.4066 4.78041 21.4412 5.20337C21.4769 5.64091 21.4779 6.21126 21.4779 7.07197L21.4779 17.472C21.4779 18.3327 21.4769 18.903 21.4412 19.3406C21.4066 19.7635 21.3459 19.9512 21.2872 20.0665C21.1194 20.3957 20.8517 20.6635 20.5224 20.8312C20.4071 20.89 20.2195 20.9507 19.7965 20.9852C19.359 21.021 18.7886 21.022 17.9279 21.022L16.7279 21.022ZM16.8415 11.6952C17.3296 12.1833 17.3296 12.9748 16.8415 13.4629L10.7676 19.5368C10.2794 20.025 9.48796 20.025 8.9998 19.5368C8.51165 19.0487 8.51165 18.2572 8.9998 17.7691L12.9402 13.8287H1.27211C0.581752 13.8287 0.0221093 13.269 0.0221093 12.5787C0.0221093 11.8883 0.581752 11.3287 1.27211 11.3287H12.9395L8.9998 7.38901C8.51165 6.90085 8.51165 6.1094 8.9998 5.62124C9.48796 5.13309 10.2794 5.13309 10.7676 5.62124L16.8415 11.6952Z" fill="black"/>
</svg>
