<svg width="24" height="24" viewBox="0 0 24 24" fill="none" xmlns="http://www.w3.org/2000/svg">
<path fill-rule="evenodd" clip-rule="evenodd" d="M16.7279 21.272C16.1756 21.272 15.7279 21.7197 15.7279 22.272C15.7279 22.8243 16.1756 23.272 16.7279 23.272H17.9279H17.9692C18.7742 23.272 19.4385 23.272 19.9797 23.2278C20.5418 23.1819 21.0585 23.0833 21.5439 22.836C22.2965 22.4525 22.9084 21.8406 23.2919 21.0879C23.5392 20.6026 23.6378 20.0859 23.6837 19.5238C23.7279 18.9826 23.7279 18.3183 23.7279 17.5133V17.5133V17.472V7.07197V7.03067V7.03064C23.7279 6.22568 23.7279 5.56133 23.6837 5.02015C23.6378 4.45805 23.5392 3.94135 23.2919 3.45601C22.9084 2.70336 22.2965 2.09144 21.5439 1.70795C21.0585 1.46065 20.5418 1.36209 19.9797 1.31617C19.4385 1.27195 18.7742 1.27196 17.9692 1.27197H17.9279H16.7279C16.1756 1.27197 15.7279 1.71969 15.7279 2.27197C15.7279 2.82426 16.1756 3.27197 16.7279 3.27197H17.9279C18.7845 3.27197 19.3668 3.27275 19.8169 3.30952C20.2553 3.34534 20.4795 3.41027 20.6359 3.48996C21.0122 3.68171 21.3182 3.98767 21.5099 4.36399C21.5896 4.52039 21.6545 4.7446 21.6904 5.18301C21.7271 5.6331 21.7279 6.21539 21.7279 7.07197L21.7279 17.472C21.7279 18.3286 21.7271 18.9108 21.6904 19.3609C21.6545 19.7993 21.5896 20.0236 21.5099 20.18C21.3182 20.5563 21.0122 20.8622 20.6359 21.054C20.4795 21.1337 20.2553 21.1986 19.8169 21.2344C19.3668 21.2712 18.7845 21.272 17.9279 21.272H16.7279ZM16.6647 11.8719C17.0552 12.2625 17.0552 12.8956 16.6647 13.2862L10.5908 19.3601C10.2003 19.7506 9.56711 19.7506 9.17658 19.3601C8.78606 18.9695 8.78606 18.3364 9.17658 17.9459L13.5438 13.5787H1.27211C0.719829 13.5787 0.272113 13.131 0.272113 12.5787C0.272113 12.0264 0.719829 11.5787 1.27211 11.5787H13.543L9.17658 7.21224C8.78606 6.82171 8.78606 6.18855 9.17658 5.79802C9.56711 5.4075 10.2003 5.4075 10.5908 5.79802L16.6647 11.8719Z" fill="black"/>
</svg>
