<svg width="24" height="24" viewBox="0 0 24 24" fill="none" xmlns="http://www.w3.org/2000/svg">
<path d="M7.38403 2.88477C7.66018 2.88477 7.88403 2.66091 7.88403 2.38477C7.88403 2.10862 7.66018 1.88477 7.38403 1.88477H6.16183C5.34056 1.88476 4.69358 1.88476 4.17292 1.9273C3.64175 1.9707 3.19817 2.06085 2.79507 2.26624C2.1365 2.6018 1.60107 3.13723 1.26551 3.7958C1.06012 4.1989 0.969966 4.64248 0.926567 5.17366C0.884029 5.6943 0.884031 6.34127 0.884033 7.16253V17.607C0.88403 18.4282 0.884028 19.0752 0.926566 19.5959C0.969965 20.1271 1.06012 20.5706 1.26551 20.9737C1.60107 21.6323 2.1365 22.1677 2.79507 22.5033C3.19817 22.7087 3.64175 22.7988 4.17292 22.8422C4.69358 22.8848 5.34055 22.8848 6.16181 22.8848H7.38403C7.66018 22.8848 7.88403 22.6609 7.88403 22.3848C7.88403 22.1086 7.66018 21.8848 7.38403 21.8848H6.18403C5.3357 21.8848 4.72953 21.8844 4.25436 21.8456C3.78502 21.8072 3.48769 21.7339 3.24906 21.6123C2.77865 21.3726 2.3962 20.9901 2.15652 20.5197C2.03493 20.2811 1.96159 19.9838 1.92325 19.5144C1.88442 19.0393 1.88403 18.4331 1.88403 17.5848L1.88403 7.18477C1.88403 6.33644 1.88442 5.73026 1.92325 5.25509C1.96159 4.78575 2.03493 4.48842 2.15652 4.24979C2.3962 3.77938 2.77865 3.39693 3.24906 3.15725C3.48769 3.03566 3.78502 2.96232 4.25436 2.92398C4.72953 2.88515 5.3357 2.88477 6.18403 2.88477L7.38403 2.88477Z" fill="black"/>
<path d="M22.968 12.4317C23.1632 12.2364 23.1632 11.9198 22.968 11.7246L16.894 5.65066C16.6988 5.4554 16.3822 5.4554 16.1869 5.65066C15.9917 5.84592 15.9917 6.16251 16.1869 6.35777L21.4073 11.5781L4.92824 11.5781C4.6521 11.5781 4.42824 11.802 4.42824 12.0781C4.42824 12.3543 4.6521 12.5781 4.92824 12.5781L21.4073 12.5781L16.1869 17.7985C15.9917 17.9938 15.9917 18.3103 16.1869 18.5056C16.3822 18.7009 16.6988 18.7009 16.894 18.5056L22.968 12.4317Z" fill="black"/>
</svg>
