<svg width="24" height="24" viewBox="0 0 24 24" fill="none" xmlns="http://www.w3.org/2000/svg">
<path d="M7.49933 0.884768C8.32776 0.884768 8.99933 1.55634 8.99933 2.38477C8.99933 3.2132 8.32776 3.88477 7.49933 3.88477H6.29914C5.43467 3.88477 4.87641 3.88621 4.45148 3.9209C4.04475 3.95413 3.89298 4.01007 3.81867 4.04785C3.53642 4.19166 3.30623 4.42186 3.16242 4.7041C3.12463 4.77842 3.06869 4.93019 3.03546 5.33692C3.00077 5.76184 2.99933 6.32011 2.99933 7.18457V17.585C2.99933 18.4494 3.00077 19.0077 3.03546 19.4326C3.06869 19.8393 3.12463 19.9911 3.16242 20.0654C3.30623 20.3477 3.53642 20.5779 3.81867 20.7217C3.89298 20.7595 4.04475 20.8154 4.45148 20.8486C4.87641 20.8833 5.43467 20.8848 6.29914 20.8848H7.49933C8.32776 20.8848 8.99933 21.5563 8.99933 22.3848C8.99933 23.2132 8.32776 23.8848 7.49933 23.8848H6.29914C5.48389 23.8848 4.78182 23.8859 4.20636 23.8389C3.61352 23.7904 3.02377 23.6836 2.45636 23.3945C1.60964 22.9631 0.920996 22.2745 0.489565 21.4277C0.200478 20.8603 0.0936948 20.2706 0.0452294 19.6777C-0.00178742 19.1023 -0.000669275 18.4002 -0.000669053 17.585V7.18457C-0.000669205 6.36933 -0.00178761 5.66726 0.0452294 5.0918C0.093695 4.49896 0.200477 3.90921 0.489565 3.3418C0.920995 2.49507 1.60963 1.80643 2.45636 1.375C3.02377 1.08591 3.61352 0.979132 4.20636 0.930666C4.78182 0.883649 5.48389 0.884768 6.29914 0.884768H7.49933Z" fill="black"/>
<path d="M15.263 4.94336C15.8122 4.39435 16.6817 4.35938 17.2708 4.83985L17.3841 4.94336L23.4583 11.0166C24.0439 11.6023 24.0439 12.5529 23.4583 13.1387L17.3841 19.2119C16.7983 19.7976 15.8488 19.7976 15.263 19.2119C14.6775 18.6261 14.6773 17.6765 15.263 17.0908L18.7767 13.5781H5.92902L5.7757 13.5703C5.01932 13.4935 4.42902 12.8548 4.42902 12.0781C4.42912 11.3016 5.01938 10.6628 5.7757 10.5859L5.92902 10.5781H18.7767L15.263 7.06446L15.1605 6.9502C14.6801 6.3611 14.714 5.49252 15.263 4.94336Z" fill="black"/>
</svg>
