<svg width="24" height="24" viewBox="0 0 24 24" fill="none" xmlns="http://www.w3.org/2000/svg">
<path d="M7.38416 3.63477C8.07451 3.63477 8.63416 3.07512 8.63416 2.38477C8.63416 1.69441 8.07451 1.13477 7.38416 1.13477L6.13431 1.13477C5.33672 1.13475 4.66347 1.13473 4.11197 1.17979C3.53442 1.22698 2.98115 1.32975 2.4547 1.59799C1.65501 2.00545 1.00484 2.65562 0.597381 3.45531C0.32914 3.98176 0.226371 4.53503 0.179183 5.11258C0.134124 5.66408 0.134139 6.33725 0.134156 7.13483V17.6346C0.134138 18.4322 0.134123 19.1055 0.179182 19.657C0.22637 20.2345 0.32914 20.7878 0.59738 21.3142C1.00484 22.1139 1.65501 22.7641 2.4547 23.1715C2.98115 23.4398 3.53442 23.5426 4.11197 23.5897C4.66347 23.6348 5.33665 23.6348 6.13422 23.6348H7.38416C8.07451 23.6348 8.63416 23.0751 8.63416 22.3848C8.63416 21.6944 8.07451 21.1348 7.38416 21.1348H6.18416C5.32345 21.1348 4.7531 21.1338 4.31555 21.098C3.8926 21.0635 3.70496 21.0028 3.58968 20.944C3.26039 20.7762 2.99268 20.5085 2.8249 20.1793C2.76616 20.064 2.70544 19.8763 2.67088 19.4534C2.63513 19.0158 2.63416 18.4455 2.63416 17.5848L2.63416 7.18477C2.63416 6.32406 2.63513 5.75371 2.67088 5.31616C2.70544 4.89321 2.76616 4.70557 2.8249 4.59029C2.99268 4.261 3.26039 3.99329 3.58968 3.82551C3.70496 3.76677 3.8926 3.70605 4.31555 3.67149C4.7531 3.63574 5.32345 3.63477 6.18416 3.63477L7.38416 3.63477Z" fill="black"/>
<path d="M23.4984 12.962C23.9866 12.4739 23.9866 11.6824 23.4984 11.1943L17.4245 5.12033C16.9363 4.63218 16.1449 4.63218 15.6567 5.12033C15.1686 5.60849 15.1686 6.39994 15.6567 6.8881L19.5968 10.8281L5.92836 10.8281C5.23801 10.8281 4.67836 11.3878 4.67836 12.0781C4.67836 12.7685 5.23801 13.3281 5.92836 13.3281L19.5968 13.3281L15.6567 17.2682C15.1686 17.7563 15.1686 18.5478 15.6567 19.0359C16.1449 19.5241 16.9363 19.5241 17.4245 19.0359L23.4984 12.962Z" fill="black"/>
</svg>
