<svg width="24" height="24" viewBox="0 0 24 24" fill="none" xmlns="http://www.w3.org/2000/svg">
<path d="M7.38403 3.13477C7.79825 3.13477 8.13403 2.79898 8.13403 2.38477C8.13403 1.97055 7.79825 1.63477 7.38403 1.63477H6.15193C5.33909 1.63476 4.68348 1.63475 4.15257 1.67813C3.60593 1.72279 3.12579 1.81715 2.68157 2.04349C1.97596 2.40302 1.40229 2.97669 1.04276 3.6823C0.816419 4.12652 0.72206 4.60666 0.677398 5.1533C0.634021 5.6842 0.634027 6.33981 0.634033 7.15263V17.6169C0.634026 18.4297 0.63402 19.0853 0.677397 19.6162C0.722059 20.1629 0.816418 20.643 1.04276 21.0872C1.40228 21.7928 1.97596 22.3665 2.68157 22.726C3.12579 22.9524 3.60593 23.0467 4.15257 23.0914C4.68347 23.1348 5.33908 23.1348 6.15191 23.1348H7.38403C7.79825 23.1348 8.13403 22.799 8.13403 22.3848C8.13403 21.9706 7.79825 21.6348 7.38403 21.6348H6.18403C5.33158 21.6348 4.73734 21.6342 4.27471 21.5964C3.82084 21.5593 3.56007 21.4902 3.36256 21.3895C2.93919 21.1738 2.59498 20.8296 2.37927 20.4062C2.27863 20.2087 2.2095 19.948 2.17242 19.4941C2.13462 19.0315 2.13403 18.4372 2.13403 17.5848L2.13403 7.18477C2.13403 6.33231 2.13462 5.73808 2.17242 5.27545C2.2095 4.82157 2.27863 4.5608 2.37927 4.36329C2.59498 3.93992 2.93919 3.59572 3.36256 3.38C3.56007 3.27936 3.82084 3.21023 4.27471 3.17315C4.73735 3.13535 5.33158 3.13477 6.18403 3.13477H7.38403Z" fill="black"/>
<path d="M23.1447 12.6085C23.4376 12.3156 23.4376 11.8407 23.1447 11.5478L17.0708 5.47389C16.7779 5.18099 16.3031 5.18099 16.0102 5.47388C15.7173 5.76678 15.7173 6.24165 16.0102 6.53454L20.8037 11.3281L5.92824 11.3281C5.51403 11.3281 5.17824 11.6639 5.17824 12.0781C5.17824 12.4923 5.51403 12.8281 5.92824 12.8281L20.8037 12.8281L16.0102 17.6217C15.7173 17.9146 15.7173 18.3895 16.0102 18.6824C16.3031 18.9753 16.7779 18.9753 17.0708 18.6824L23.1447 12.6085Z" fill="black"/>
</svg>
