<svg width="24" height="24" viewBox="0 0 24 24" fill="none" xmlns="http://www.w3.org/2000/svg">
<path d="M7.38416 3.38477C7.93644 3.38477 8.38416 2.93705 8.38416 2.38477C8.38416 1.83248 7.93644 1.38477 7.38416 1.38477H6.14286C5.33789 1.38475 4.67353 1.38474 4.13233 1.42896C3.57023 1.47488 3.05353 1.57345 2.56819 1.82074C1.81555 2.20423 1.20362 2.81616 0.820131 3.5688C0.57284 4.05414 0.474275 4.57084 0.42835 5.13294C0.384134 5.67412 0.384144 6.33847 0.384156 7.14341V17.6261C0.384143 18.431 0.384133 19.0954 0.42835 19.6366C0.474275 20.1987 0.572839 20.7154 0.820129 21.2007C1.20362 21.9534 1.81555 22.5653 2.56819 22.9488C3.05353 23.1961 3.57023 23.2946 4.13233 23.3406C4.67352 23.3848 5.33787 23.3848 6.14283 23.3848H7.38416C7.93644 23.3848 8.38416 22.937 8.38416 22.3848C8.38416 21.8325 7.93644 21.3848 7.38416 21.3848H6.18416C5.32758 21.3848 4.74528 21.384 4.29519 21.3472C3.85678 21.3114 3.63258 21.2465 3.47618 21.1668C3.09985 20.975 2.79389 20.6691 2.60214 20.2927C2.52245 20.1363 2.45753 19.9121 2.42171 19.4737C2.38493 19.0236 2.38416 18.4413 2.38416 17.5848L2.38416 7.18477C2.38416 6.32819 2.38493 5.74589 2.42171 5.2958C2.45753 4.85739 2.52245 4.63318 2.60214 4.47678C2.79389 4.10046 3.09985 3.7945 3.47618 3.60275C3.63258 3.52306 3.85678 3.45814 4.29519 3.42232C4.74528 3.38554 5.32758 3.38477 6.18416 3.38477H7.38416Z" fill="black"/>
<path d="M23.3216 12.7852C23.7122 12.3947 23.7122 11.7616 23.3216 11.371L17.2477 5.29711C16.8572 4.90658 16.224 4.90658 15.8335 5.29711C15.443 5.68763 15.443 6.3208 15.8335 6.71132L20.2003 11.0781L5.92836 11.0781C5.37608 11.0781 4.92836 11.5258 4.92836 12.0781C4.92836 12.6304 5.37608 13.0781 5.92836 13.0781L20.2003 13.0781L15.8335 17.4449C15.443 17.8355 15.443 18.4686 15.8335 18.8592C16.224 19.2497 16.8572 19.2497 17.2477 18.8592L23.3216 12.7852Z" fill="black"/>
</svg>
