<svg width="24" height="24" viewBox="0 0 24 24" fill="none" xmlns="http://www.w3.org/2000/svg">
<path d="M12 0C12.9665 0 13.75 0.783502 13.75 1.75V10.249L22.25 10.25C23.2165 10.25 24 11.0335 24 12C24 12.9665 23.2165 13.75 22.25 13.75H13.75L13.751 22.25L13.7412 22.4297C13.6513 23.3118 12.9058 24 12 24C11.0942 24 10.3487 23.3118 10.2588 22.4297L10.249 22.25V13.75L1.75 13.751L1.57031 13.7412C0.688216 13.6513 0 12.9058 0 12C0 11.0942 0.688216 10.3487 1.57031 10.2588L1.75 10.249H10.249L10.25 1.75C10.25 0.783502 11.0335 0 12 0Z" fill="black"/>
</svg>
