<svg width="24" height="24" viewBox="0 0 24 24" fill="none" xmlns="http://www.w3.org/2000/svg">
<path d="M20.2133 6.74264C20.5057 6.74264 20.7426 6.50566 20.7426 6.21332V2C20.7426 1.72386 20.5188 1.5 20.2426 1.5C19.9665 1.5 19.7426 1.72386 19.7426 2V4.79254C17.8197 2.79535 15.1175 1.55176 12.125 1.55176C6.28556 1.55176 1.55176 6.28556 1.55176 12.125C1.55176 17.9644 6.28556 22.6983 12.125 22.6983C17.9644 22.6983 22.6983 17.9644 22.6983 12.125C22.6983 11.8489 22.4744 11.625 22.1983 11.625C21.9221 11.625 21.6983 11.8489 21.6983 12.125C21.6983 17.4122 17.4122 21.6983 12.125 21.6983C6.83785 21.6983 2.55176 17.4122 2.55176 12.125C2.55176 6.83784 6.83785 2.55176 12.125 2.55176C14.9599 2.55176 17.5069 3.78353 19.2605 5.74264L16 5.74264C15.7239 5.74264 15.5 5.9665 15.5 6.24264C15.5 6.51878 15.7239 6.74264 16 6.74264L20.2133 6.74264Z" fill="black"/>
</svg>
