<svg width="24" height="24" viewBox="0 0 24 24" fill="none" xmlns="http://www.w3.org/2000/svg">
<path d="M20.2133 6.49264C20.3676 6.49264 20.4926 6.36759 20.4926 6.21332V2C20.4926 1.86193 20.3807 1.75 20.2426 1.75C20.1046 1.75 19.9926 1.86193 19.9926 2V5.44115C18.0994 3.2148 15.2772 1.80175 12.125 1.80175C6.42363 1.80175 1.80176 6.42363 1.80176 12.125C1.80176 17.8264 6.42363 22.4482 12.125 22.4482C17.8264 22.4482 22.4483 17.8264 22.4483 12.125C22.4483 11.9869 22.3363 11.875 22.1983 11.875C22.0602 11.875 21.9483 11.9869 21.9483 12.125C21.9483 17.5502 17.5502 21.9482 12.125 21.9482C6.69978 21.9482 2.30176 17.5502 2.30176 12.125C2.30176 6.69977 6.69978 2.30175 12.125 2.30175C15.2303 2.30175 17.999 3.74235 19.7995 5.99264L16 5.99264C15.8619 5.99264 15.75 6.10457 15.75 6.24264C15.75 6.38071 15.8619 6.49264 16 6.49264L20.2133 6.49264Z" fill="black"/>
</svg>
