<svg width="24" height="24" viewBox="0 0 24 24" fill="none" xmlns="http://www.w3.org/2000/svg">
<path fill-rule="evenodd" clip-rule="evenodd" d="M7.32112 12C7.32112 9.43959 9.42206 7.37506 12 7.37506C14.5779 7.37506 16.6788 9.43959 16.6788 12C16.6788 14.5603 14.5779 16.6248 12 16.6248C9.42206 16.6248 7.32112 14.5603 7.32112 12ZM12 8.37506C9.96205 8.37506 8.32112 10.0041 8.32112 12C8.32112 13.9958 9.96205 15.6248 12 15.6248C14.0379 15.6248 15.6788 13.9958 15.6788 12C15.6788 10.0041 14.0379 8.37506 12 8.37506Z" fill="black"/>
<path fill-rule="evenodd" clip-rule="evenodd" d="M10.336 0.618696C11.4397 0.460781 12.5604 0.460755 13.6633 0.618649C14.2113 0.697099 14.6339 1.09823 14.7829 1.60174L15.3386 3.47915C15.4771 3.94707 15.8364 4.34591 16.3177 4.62117C16.7922 4.89251 17.3096 4.99936 17.7783 4.88647L19.7407 4.4138C20.2474 4.29176 20.8024 4.45326 21.1454 4.88315C21.8327 5.74467 22.3915 6.69924 22.8055 7.71778C23.0168 8.2376 22.8761 8.81184 22.5064 9.19353L21.1251 10.6194C20.7943 10.9609 20.6286 11.4582 20.6286 12.0006C20.6286 12.5428 20.7941 13.0393 21.125 13.3811L21.7162 13.9917C22.561 14.8642 22.9162 16.2064 22.3014 17.3592C21.9714 17.978 21.5847 18.5667 21.1456 19.1177C20.8027 19.548 20.2474 19.7098 19.7403 19.5877L17.7778 19.115C17.3094 19.0022 16.7922 19.1089 16.3174 19.3799C15.8363 19.6544 15.4771 20.053 15.3388 20.5207L14.783 22.3991C14.6339 22.9032 14.2107 23.3045 13.6621 23.3826C12.56 23.5395 11.4401 23.5394 10.3371 23.3826C9.78853 23.3045 9.3652 22.9032 9.21604 22.399L8.66034 20.5207C8.52198 20.053 8.16283 19.6544 7.68171 19.3799C7.20694 19.1089 6.68972 19.0022 6.22127 19.115L4.25879 19.5877C3.75176 19.7098 3.19646 19.548 2.85355 19.1177C2.16653 18.2557 1.60784 17.3014 1.19385 16.2839C0.982369 15.7642 1.12288 15.1898 1.49256 14.808L2.87416 13.3811C3.20505 13.0393 3.37048 12.5428 3.37048 12.0006C3.37048 11.4582 3.20487 10.9609 2.87404 10.6194L1.49275 9.19353C1.12299 8.81184 0.982297 8.2376 1.1936 7.71778C1.60762 6.69924 2.16645 5.74467 2.85373 4.88315C3.19668 4.45326 3.7517 4.29176 4.25838 4.4138L6.22084 4.88647C6.68954 4.99936 7.20691 4.89251 7.68137 4.62117C8.16269 4.34591 8.52207 3.94706 8.66056 3.47914L9.21619 1.60186C9.36525 1.09824 9.7879 0.697112 10.336 0.618696ZM13.5216 1.60856C12.5127 1.46413 11.4874 1.46413 10.4776 1.60861C10.3443 1.62768 10.2214 1.7293 10.1751 1.88567L9.61944 3.76295C9.39004 4.538 8.82175 5.12098 8.17781 5.48924C7.54113 5.85335 6.76241 6.0455 5.98669 5.85867L4.02422 5.386C3.86677 5.34808 3.71852 5.40265 3.63546 5.50678C3.00796 6.29335 2.49787 7.16471 2.11999 8.09434C2.06894 8.21992 2.096 8.37903 2.21099 8.49773L3.59228 9.92356C4.14771 10.4969 4.37048 11.2693 4.37048 12.0006C4.37048 12.7321 4.14769 13.5033 3.59259 14.0766L2.21099 15.5036C2.09603 15.6224 2.06903 15.7815 2.12012 15.9071C2.49799 16.8358 3.00806 17.7071 3.63558 18.4945C3.71871 18.5988 3.86711 18.6534 4.02464 18.6155L5.98711 18.1428C6.76255 17.956 7.54086 18.1481 8.17734 18.5113C8.82174 18.8791 9.38999 19.462 9.61926 20.237L10.175 22.1153C10.2213 22.2718 10.3444 22.3735 10.478 22.3925C11.4875 22.5361 12.5126 22.5361 13.5212 22.3926C13.6547 22.3736 13.7778 22.2719 13.8241 22.1154L14.3799 20.237C14.6091 19.462 15.1774 18.8791 15.8218 18.5113C16.4582 18.1481 17.2366 17.956 18.012 18.1428L19.9745 18.6155C20.132 18.6534 20.2804 18.5988 20.3635 18.4945C20.7647 17.9912 21.1178 17.4536 21.4191 16.8886C21.7879 16.197 21.607 15.3165 20.9978 14.6873L20.4065 14.0766C19.8514 13.5033 19.6286 12.7321 19.6286 12.0006C19.6286 11.2693 19.8514 10.4969 20.4068 9.92356L21.7881 8.49773C21.9031 8.37903 21.9302 8.21992 21.8791 8.09434C21.5013 7.16472 20.9912 6.29335 20.3637 5.50678C20.2806 5.40265 20.1324 5.34808 19.9749 5.386L18.0124 5.85867C17.2367 6.04551 16.458 5.85335 15.8213 5.48924C15.1774 5.12098 14.6091 4.53801 14.3797 3.76296L13.824 1.88555C13.7777 1.7292 13.6548 1.62763 13.5216 1.60856Z" fill="black"/>
</svg>
