<svg width="24" height="24" viewBox="0 0 24 24" fill="none" xmlns="http://www.w3.org/2000/svg">
<path fill-rule="evenodd" clip-rule="evenodd" d="M13.7105 0.123031C14.08 0.176474 14.3751 0.450172 14.4798 0.808512L15.0837 2.87547C15.2788 3.54323 15.7737 4.07179 16.376 4.42004C16.9779 4.76809 17.6828 4.93236 18.3583 4.76754L20.4521 4.25663C20.8151 4.16807 21.1999 4.28706 21.4309 4.58068C22.1393 5.48117 22.715 6.47887 23.141 7.54332C23.2799 7.89034 23.1906 8.28335 22.9322 8.5535L21.4444 10.1094C20.9637 10.612 20.7534 11.3053 20.7534 12.0007C20.7534 12.6962 20.9636 13.3883 21.4441 13.891L22.0915 14.5683C22.8662 15.379 23.1518 16.5699 22.632 17.5635C22.2899 18.2172 21.8881 18.8389 21.431 19.4206C21.2 19.7145 20.8149 19.8337 20.4517 19.7451L18.3578 19.2342C17.6826 19.0694 16.978 19.2336 16.376 19.5809C15.7737 19.9285 15.2788 20.4569 15.0839 21.1245L14.4799 23.1926C14.3752 23.5513 14.0796 23.8252 13.7097 23.8784C12.576 24.0414 11.4241 24.0414 10.2896 23.8783C9.91964 23.8252 9.62395 23.5512 9.51916 23.1924L8.91527 21.1245C8.72031 20.4569 8.22548 19.9285 7.6231 19.5809C7.02113 19.2336 6.31651 19.0694 5.64133 19.2342L3.54746 19.7451C3.18428 19.8337 2.7992 19.7145 2.5682 19.4206C1.85993 18.5193 1.28436 17.5218 0.85834 16.4585C0.719325 16.1115 0.808554 15.7184 1.06682 15.4482L2.55502 13.891C3.0355 13.3883 3.24576 12.6962 3.24576 12.0007C3.24576 11.3053 3.03541 10.612 2.55477 10.1094L1.06692 8.5535C0.808592 8.28335 0.719243 7.89034 0.858137 7.54332C1.28419 6.47887 1.85983 5.48117 2.56823 4.58068C2.79922 4.28706 3.18406 4.16807 3.54701 4.25663L5.64086 4.76754C6.31634 4.93236 7.02126 4.76809 7.62317 4.42004C8.22541 4.07179 8.72039 3.54323 8.91548 2.87547L9.51931 0.808643C9.62402 0.450235 9.91923 0.176514 10.2888 0.123088C11.4239 -0.0410102 12.5763 -0.0410293 13.7105 0.123031ZM12 18.5C15.5899 18.5 18.5 15.5899 18.5 12C18.5 8.41015 15.5899 5.5 12 5.5C8.41015 5.5 5.5 8.41015 5.5 12C5.5 15.5899 8.41015 18.5 12 18.5Z" fill="black"/>
</svg>
