<svg width="24" height="24" viewBox="0 0 24 24" fill="none" xmlns="http://www.w3.org/2000/svg">
<path d="M16.3865 2.43276L16.7848 3.77868L18.2008 3.43763C19.3607 3.15828 20.6813 3.51888 21.5149 4.56389C22.2322 5.46294 22.8156 6.45941 23.2479 7.52294C23.7618 8.78726 23.4053 10.1418 22.559 11.0153L21.6048 12.0003L21.8771 12.2816C23.0937 13.5382 23.761 15.6523 22.7215 17.6016C22.3771 18.2474 21.9736 18.8616 21.5157 19.4361C20.6823 20.4818 19.3612 20.8433 18.2005 20.5637L18.7858 18.1332C19.0728 18.2023 19.3767 18.1088 19.5606 17.878C19.9235 17.4227 20.243 16.9364 20.5156 16.4252C20.9403 15.6288 20.7088 14.669 20.081 14.0205L19.5703 13.4931C19.1877 13.098 19.0201 12.5506 19.0201 12.0006C19.0201 11.4505 19.1878 10.9022 19.5705 10.5072L20.7634 9.2758C20.9728 9.05973 21.0452 8.74305 20.9319 8.46436C20.5899 7.6231 20.1284 6.83463 19.5606 6.12296C19.3767 5.89236 19.073 5.79905 18.7862 5.86813L17.0913 6.27634C16.554 6.40577 15.9943 6.27666 15.5145 6.00226C15.0286 5.72437 14.628 5.3004 14.4691 4.76367L13.9892 3.14227C13.9049 2.85733 13.6694 2.64026 13.3752 2.59814C12.4633 2.4676 11.5366 2.46761 10.6239 2.59819C10.3297 2.64029 10.0941 2.85738 10.0098 3.14237L9.5299 4.76366C9.37104 5.3004 8.97045 5.72437 8.48455 6.00226C8.00473 6.27666 7.44506 6.40577 6.9077 6.27634L5.21284 5.86813C4.92606 5.79905 4.62237 5.89236 4.43841 6.12296C3.87067 6.83463 3.40909 7.6231 3.06713 8.46436L0.751155 7.52295C1.18347 6.45941 1.76688 5.46294 2.4841 4.56389C3.31777 3.51888 4.63838 3.15828 5.79824 3.43763L7.21423 3.77868L7.61256 2.43286C7.95385 1.27975 8.93868 0.313854 10.2698 0.123393C11.4172 -0.0407735 12.5825 -0.0408314 13.7295 0.123374C15.0607 0.31394 16.0452 1.27993 16.3865 2.43276Z" fill="black"/>
<path d="M16.7846 20.2227L18.2005 20.5637L18.7858 18.1332L17.091 17.725C16.5538 17.5956 15.9944 17.7247 15.5145 17.9985C15.0285 18.2759 14.6281 18.6997 14.4693 19.2363L13.9894 20.8586C13.905 21.1438 13.6691 21.361 13.3745 21.403C12.463 21.5327 11.5368 21.5327 10.6246 21.4029C10.33 21.361 10.0941 21.1438 10.0096 20.8585L9.52973 19.2363C9.37098 18.6997 8.97051 18.2759 8.48449 17.9985C8.00463 17.7247 7.4452 17.5956 6.90807 17.725L5.2132 18.1332C4.92623 18.2023 4.62236 18.1088 4.43839 17.878C3.87075 17.1658 3.40923 16.3774 3.0673 15.5371C2.95391 15.2584 3.02625 14.9417 3.23552 14.7255L4.42872 13.4931C4.81131 13.098 4.97895 12.5506 4.97895 12.0006C4.97895 11.4505 4.81124 10.9022 4.42854 10.5072L3.23561 9.2758C3.02628 9.05973 2.95384 8.74305 3.06713 8.46436L0.751155 7.52295C0.237227 8.78727 0.593756 10.1418 1.44001 11.0153L2.39428 12.0003L1.43943 12.9865C0.593376 13.8604 0.237268 15.215 0.751635 16.4792C1.18386 17.5415 1.76693 18.5372 2.48333 19.4361C3.31672 20.4818 4.63786 20.8433 5.7986 20.5637L7.21444 20.2227L7.61236 21.5677C7.95392 22.7222 8.94031 23.6885 10.2725 23.878C11.4182 24.041 12.5815 24.041 13.7268 23.878C15.0591 23.6884 16.0452 22.722 16.3867 21.5678L16.7846 20.2227Z" fill="black"/>
<path fill-rule="evenodd" clip-rule="evenodd" d="M16.3308 12C16.3308 14.361 14.3918 16.275 11.9999 16.275C9.60797 16.275 7.66896 14.361 7.66896 12C7.66896 9.63897 9.60797 7.72499 11.9999 7.72499C14.3918 7.72499 16.3308 9.63897 16.3308 12ZM11.9999 10.225C10.958 10.225 10.169 11.0502 10.169 12C10.169 12.9498 10.958 13.775 11.9999 13.775C13.0418 13.775 13.8308 12.9498 13.8308 12C13.8308 11.0502 13.0418 10.225 11.9999 10.225Z" fill="black"/>
</svg>
