<svg width="24" height="24" viewBox="0 0 24 24" fill="none" xmlns="http://www.w3.org/2000/svg">
<path fill-rule="evenodd" clip-rule="evenodd" d="M7.57113 12C7.57113 9.58072 9.55707 7.62506 12 7.62506C14.4429 7.62506 16.4288 9.58072 16.4288 12C16.4288 14.4192 14.4429 16.3748 12 16.3748C9.55707 16.3748 7.57113 14.4192 7.57113 12ZM12 8.12506C9.82706 8.12506 8.07113 9.86296 8.07113 12C8.07113 14.1369 9.82706 15.8748 12 15.8748C14.1729 15.8748 15.9288 14.1369 15.9288 12C15.9288 9.86296 14.1729 8.12506 12 8.12506Z" fill="black"/>
<path fill-rule="evenodd" clip-rule="evenodd" d="M10.3714 0.866176C11.4516 0.71162 12.5485 0.711598 13.6279 0.866126C14.0722 0.929731 14.4198 1.25597 14.5432 1.67269L15.0989 3.5501C15.2601 4.0948 15.6717 4.53968 16.1936 4.83819C16.7087 5.13272 17.2913 5.26089 17.8368 5.12952L19.7993 4.65685C20.2187 4.55584 20.672 4.69061 20.95 5.03906C21.6223 5.88184 22.1689 6.81561 22.5739 7.81192C22.7452 8.23318 22.6329 8.70364 22.3268 9.01958L20.9455 10.4454C20.5586 10.8449 20.3786 11.411 20.3786 12.0006C20.3786 12.5901 20.5584 13.1553 20.9454 13.555L21.5366 14.1656C22.3225 14.9773 22.6341 16.2041 22.0809 17.2415C21.758 17.8469 21.3797 18.4228 20.9501 18.9619C20.6721 19.3107 20.2185 19.4457 19.7989 19.3446L17.8364 18.872C17.2912 18.7406 16.7087 18.8687 16.1935 19.1627C15.6716 19.4606 15.2601 19.9052 15.0991 20.4497L14.5433 22.3282C14.4199 22.7454 14.0717 23.0718 13.6269 23.1351C12.5481 23.2886 11.4519 23.2886 10.3724 23.1351C9.92752 23.0718 9.57923 22.7453 9.45578 22.3281L8.90008 20.4497C8.73899 19.9052 8.32756 19.4606 7.80562 19.1627C7.29043 18.8687 6.70794 18.7406 6.16274 18.872L4.20026 19.3446C3.7806 19.4457 3.32703 19.3107 3.04907 18.9619C2.37692 18.1185 1.83038 17.185 1.42543 16.1897C1.25404 15.7685 1.36618 15.298 1.67217 14.9819L3.05378 13.555C3.44072 13.1553 3.62049 12.5901 3.62049 12.0006C3.62049 11.411 3.44059 10.8449 3.05361 10.4454L1.67232 9.01958C1.36625 8.70364 1.25397 8.23318 1.42521 7.81192C1.83019 6.81561 2.37684 5.88184 3.04917 5.03906C3.32715 4.69061 3.78048 4.55584 4.19985 4.65685L6.16231 5.12952C6.70777 5.26089 7.29047 5.13272 7.80549 4.83819C8.32746 4.53968 8.73907 4.0948 8.90029 3.55009L9.45592 1.67281C9.57928 1.25601 9.92701 0.929755 10.3714 0.866176ZM13.5571 1.36108C12.5246 1.21328 11.4755 1.2133 10.4422 1.36114C10.2052 1.39504 10.0073 1.57153 9.93536 1.81471L9.37973 3.692C9.17306 4.39027 8.65699 4.92721 8.05371 5.27222C7.45758 5.61314 6.7442 5.78397 6.04523 5.61562L4.08277 5.14295C3.83801 5.084 3.58807 5.16531 3.44003 5.35087C2.79759 6.15618 2.27532 7.04835 1.8884 8.0002C1.79729 8.22434 1.85275 8.48723 2.03144 8.67168L3.41273 10.0975C3.91201 10.6129 4.12049 11.3165 4.12049 12.0006C4.12049 12.6848 3.91204 13.3873 3.41299 13.9028L2.03139 15.3297C1.85275 15.5142 1.79737 15.7772 1.88856 16.0013C2.27546 16.9522 2.79769 17.8442 3.44008 18.6503C3.58816 18.8361 3.83828 18.9175 4.08318 18.8585L6.04566 18.3859C6.74435 18.2176 7.45739 18.3883 8.05344 18.7285C8.65702 19.0729 9.173 19.6097 9.37954 20.3079L9.93523 22.1862C10.0073 22.4296 10.2055 22.6063 10.4428 22.64C11.4757 22.787 12.5244 22.787 13.5565 22.6401C13.7937 22.6063 13.9919 22.4297 14.0639 22.1863L14.6196 20.3079C14.8261 19.6097 15.3421 19.0729 15.9457 18.7285C16.5417 18.3883 17.2548 18.2176 17.9535 18.3859L19.916 18.8585C20.1609 18.9175 20.411 18.8361 20.5591 18.6503C20.9697 18.135 21.3312 17.5847 21.6397 17.0062C22.07 16.1994 21.8455 15.2034 21.1774 14.5134L20.5861 13.9028C20.0871 13.3873 19.8786 12.6848 19.8786 12.0006C19.8786 11.3165 20.0871 10.6129 20.5864 10.0975L21.9677 8.67168C22.1464 8.48723 22.2018 8.22434 22.1107 8.0002C21.7238 7.04835 21.2015 6.15618 20.5591 5.35087C20.4111 5.16531 20.1611 5.084 19.9164 5.14295L17.9539 5.61562C17.2549 5.78397 16.5415 5.61314 15.9454 5.27222C15.3421 4.92721 14.8261 4.39027 14.6194 3.692L14.0637 1.81459C13.9918 1.57145 13.794 1.39499 13.5571 1.36108Z" fill="black"/>
</svg>
