<svg width="24" height="24" viewBox="0 0 24 24" fill="none" xmlns="http://www.w3.org/2000/svg">
<path d="M2.76389 0.996121C2.27573 0.507966 1.48428 0.507966 0.996121 0.996121C0.507966 1.48428 0.507966 2.27573 0.996121 2.76389L10.2322 12L0.996122 21.2361C0.507966 21.7243 0.507966 22.5157 0.996122 23.0039C1.48428 23.492 2.27573 23.492 2.76389 23.0039L12 13.7678L21.2361 23.0039C21.7243 23.492 22.5157 23.492 23.0039 23.0039C23.492 22.5157 23.492 21.7243 23.0039 21.2361L13.7678 12L23.0039 2.76389C23.492 2.27573 23.492 1.48428 23.0039 0.996121C22.5157 0.507966 21.7243 0.507966 21.2361 0.996121L12 10.2322L2.76389 0.996121Z" fill="black"/>
</svg>
