<svg width="24" height="24" viewBox="0 0 24 24" fill="none" xmlns="http://www.w3.org/2000/svg">
<path d="M20.9394 0.939523C21.5252 0.353736 22.4747 0.353736 23.0605 0.939523C23.6462 1.52532 23.6463 2.47487 23.0605 3.06062L14.1211 12.0001L23.0605 20.9395L23.1641 21.0538C23.644 21.6429 23.6095 22.5116 23.0605 23.0606C22.5115 23.6095 21.6428 23.6441 21.0537 23.1641L20.9394 23.0606L12 14.1212L3.06053 23.0606L2.94628 23.1641C2.35717 23.6442 1.48845 23.6095 0.939441 23.0606C0.390446 22.5116 0.355892 21.6429 0.835926 21.0538L0.939441 20.9395L9.87889 12.0001L0.939441 3.06062C0.35368 2.47486 0.353732 1.52532 0.939441 0.939523C1.52523 0.353736 2.47475 0.353736 3.06053 0.939523L12 9.87898L20.9394 0.939523Z" fill="black"/>
</svg>
