<svg width="24" height="24" viewBox="0 0 24 24" fill="none" xmlns="http://www.w3.org/2000/svg">
<path d="M21.8346 0.751206C22.2251 0.360682 22.8583 0.360682 23.2488 0.751206C23.6393 1.14173 23.6393 1.7749 23.2488 2.16542L13.4143 12L23.2488 21.8345C23.6393 22.2251 23.6393 22.8582 23.2488 23.2488C22.8583 23.6393 22.2251 23.6393 21.8346 23.2488L12 13.4142L2.16548 23.2488C1.77496 23.6393 1.14179 23.6393 0.751267 23.2488C0.360743 22.8582 0.360743 22.2251 0.751267 21.8345L10.5858 12L0.751269 2.16542C0.360745 1.7749 0.360745 1.14173 0.751269 0.751206C1.14179 0.360682 1.77496 0.360682 2.16548 0.751206L12 10.5858L21.8346 0.751206Z" fill="black"/>
</svg>
