<svg width="24" height="24" viewBox="0 0 24 24" fill="none" xmlns="http://www.w3.org/2000/svg">
<path fill-rule="evenodd" clip-rule="evenodd" d="M4.56985 7.5645C6.41794 6.0706 8.92239 4.75 12 4.75C14.8588 4.75 17.3274 6.06665 19.204 7.55158C21.082 9.03763 22.3885 10.7089 22.9291 11.4585L22.9431 11.4779C23.022 11.5871 23.0935 11.6859 23.1294 11.8193C23.1589 11.9288 23.1619 12.067 23.1372 12.1777C23.1071 12.3125 23.0403 12.4138 22.9666 12.5256L22.9536 12.5454C22.454 13.3053 21.2444 14.9764 19.4 16.4597C17.5549 17.9436 15.0609 19.25 12 19.25C8.92239 19.25 6.41794 17.9294 4.56985 16.4355C2.72245 14.9421 1.51709 13.2649 1.03025 12.5208L1.01832 12.5026C0.949079 12.3971 0.886253 12.3013 0.855808 12.1723C0.830942 12.0669 0.830942 11.9331 0.855808 11.8277C0.886252 11.6987 0.949078 11.6029 1.01832 11.4974L1.03025 11.4792C1.5171 10.7351 2.72245 9.05785 4.56985 7.5645ZM12 16C14.2091 16 16 14.2091 16 12C16 9.79086 14.2091 8 12 8C9.79082 8 7.99996 9.79086 7.99996 12C7.99996 14.2091 9.79082 16 12 16Z" fill="black"/>
</svg>
