<svg width="24" height="24" viewBox="0 0 24 24" fill="none" xmlns="http://www.w3.org/2000/svg">
<path fill-rule="evenodd" clip-rule="evenodd" d="M16.0002 12C16.0002 14.2091 14.2093 16 12.0002 16C9.79107 16 8.00021 14.2091 8.00021 12C8.00021 9.79086 9.79107 8 12.0002 8C14.2093 8 16.0002 9.79086 16.0002 12ZM15.5002 12C15.5002 13.933 13.9332 15.5 12.0002 15.5C10.0672 15.5 8.50021 13.933 8.50021 12C8.50021 10.067 10.0672 8.5 12.0002 8.5C13.9332 8.5 15.5002 10.067 15.5002 12Z" fill="black"/>
<path fill-rule="evenodd" clip-rule="evenodd" d="M12.0002 4.75C8.92264 4.75 6.41818 6.0706 4.5701 7.5645C2.72269 9.05785 1.51734 10.7351 1.03049 11.4792L1.01856 11.4974C0.949322 11.6029 0.886496 11.6987 0.856052 11.8277C0.831186 11.9331 0.831186 12.0669 0.856052 12.1723C0.886497 12.3013 0.949323 12.3971 1.01856 12.5026L1.03049 12.5208C1.51734 13.2649 2.72269 14.9421 4.5701 16.4355C6.41818 17.9294 8.92264 19.25 12.0002 19.25C15.0611 19.25 17.5551 17.9436 19.4002 16.4597C21.2446 14.9764 22.4542 13.3053 22.9538 12.5454L22.9668 12.5256C23.0405 12.4138 23.1073 12.3125 23.1374 12.1777C23.1621 12.067 23.1591 11.9288 23.1297 11.8193C23.0938 11.6859 23.0223 11.5871 22.9434 11.4779L22.9293 11.4585C22.3888 10.7089 21.0822 9.03763 19.2042 7.55158C17.3276 6.06665 14.8591 4.75 12.0002 4.75ZM1.4489 11.7529C1.92007 11.0328 3.09237 9.40195 4.88442 7.95334C6.67579 6.50529 9.07258 5.25 12.0002 5.25C14.7033 5.25 17.0645 6.49607 18.8939 7.94368C20.7219 9.39017 21.9976 11.0213 22.5238 11.751C22.6233 11.8889 22.6373 11.9139 22.6468 11.9493C22.6553 11.9807 22.6565 12.0369 22.6494 12.0687C22.6414 12.1045 22.6287 12.1297 22.536 12.2707C22.0522 13.0066 20.8758 14.6314 19.0869 16.0701C17.2987 17.5083 14.912 18.75 12.0002 18.75C9.07258 18.75 6.67579 17.4947 4.88442 16.0467C3.09237 14.5981 1.92007 12.9672 1.4489 12.2471C1.36256 12.1151 1.35083 12.0919 1.34269 12.0574C1.33564 12.0276 1.33564 11.9724 1.34269 11.9426C1.35083 11.9081 1.36256 11.8849 1.4489 11.7529Z" fill="black"/>
</svg>
