<svg width="24" height="24" viewBox="0 0 24 24" fill="none" xmlns="http://www.w3.org/2000/svg">
<path fill-rule="evenodd" clip-rule="evenodd" d="M16.0001 12C16.0001 14.2091 14.2092 16 12.0001 16C9.79093 16 8.00007 14.2091 8.00007 12C8.00007 9.79086 9.79093 8 12.0001 8C14.2092 8 16.0001 9.79086 16.0001 12ZM13.5001 12C13.5001 12.8284 12.8285 13.5 12.0001 13.5C11.1716 13.5 10.5001 12.8284 10.5001 12C10.5001 11.1716 11.1716 10.5 12.0001 10.5C12.8285 10.5 13.5001 11.1716 13.5001 12Z" fill="black"/>
<path fill-rule="evenodd" clip-rule="evenodd" d="M12 3.75C8.67698 3.75 6.0064 5.21309 4.08729 6.80266C2.17089 8.38998 0.929075 10.1626 0.426496 10.9497L0.412398 10.9714C0.351164 11.065 0.198039 11.2992 0.127171 11.6056C0.0689379 11.8574 0.0689379 12.1426 0.127171 12.3944C0.198039 12.7008 0.351165 12.935 0.412398 13.0286L0.426495 13.0503C0.929075 13.8374 2.17089 15.61 4.08729 17.1973C6.0064 18.7869 8.67698 20.25 12 20.25C15.3054 20.25 17.9653 18.8024 19.882 17.2228C21.7957 15.6456 23.0419 13.879 23.5571 13.0761L23.572 13.0533C23.6364 12.9554 23.7987 12.7087 23.8689 12.3879C23.9265 12.1242 23.9202 11.828 23.8512 11.5671C23.7673 11.2493 23.5938 11.0089 23.5251 10.9137L23.5091 10.8914C22.9566 10.1066 21.6194 8.35221 19.6835 6.78281C17.7557 5.21998 15.1207 3.75 12 3.75ZM5.682 15.272C4.24889 14.085 3.24419 12.7619 2.72792 12C3.24419 11.2381 4.24889 9.91501 5.682 8.72799C7.3212 7.37027 9.44586 6.25 12 6.25C14.3226 6.25 16.4132 7.34995 18.1092 8.72482C19.5848 9.92112 20.6759 11.2572 21.2498 12.0328C20.7237 12.8047 19.7182 14.1182 18.292 15.2935C16.6562 16.6416 14.5407 17.75 12 17.75C9.44585 17.75 7.3212 16.6297 5.682 15.272Z" fill="black"/>
</svg>
