<svg width="24" height="24" viewBox="0 0 24 24" fill="none" xmlns="http://www.w3.org/2000/svg">
<path d="M3.44533 3.25877C3.3477 3.16114 3.18941 3.16114 3.09178 3.25877C2.99415 3.3564 2.99415 3.51469 3.09178 3.61232L20.6476 21.1682C20.7453 21.2658 20.9036 21.2658 21.0012 21.1682C21.0988 21.0705 21.0988 20.9123 21.0012 20.8146L3.44533 3.25877Z" fill="black"/>
<path d="M4.5701 7.56404C4.76269 7.40836 4.96241 7.25456 5.16917 7.10394L8.37404 10.3088C8.13418 10.8224 8.00021 11.3953 8.00021 11.9995C8.00021 14.2087 9.79107 15.9995 12.0002 15.9995C12.6044 15.9995 13.1774 15.8656 13.6909 15.6257L16.3805 18.3153C15.0881 18.882 13.6239 19.2495 12.0002 19.2495C8.92264 19.2495 6.41818 17.9289 4.5701 16.435C2.72269 14.9417 1.51734 13.2645 1.03049 12.5204L1.01856 12.5022C0.949323 12.3966 0.886497 12.3008 0.856052 12.1718C0.831186 12.0664 0.831186 11.9327 0.856052 11.8273C0.886496 11.6983 0.949322 11.6025 1.01856 11.4969L1.03049 11.4787C1.51734 10.7346 2.72269 9.05739 4.5701 7.56404Z" fill="black"/>
<path d="M16.0002 11.9995C16.0002 12.6927 15.8239 13.3446 15.5137 13.913L18.6358 17.0351C18.9018 16.848 19.1567 16.6552 19.4002 16.4593C21.2446 14.976 22.4542 13.3048 22.9538 12.5449L22.9668 12.5252C23.0405 12.4134 23.1073 12.3121 23.1374 12.1772C23.1621 12.0665 23.1591 11.9284 23.1297 11.8189C23.0938 11.6855 23.0223 11.5866 22.9434 11.4775L22.9293 11.4581C22.3888 10.7085 21.0822 9.03717 19.2042 7.55113C17.3276 6.06619 14.8591 4.74954 12.0002 4.74954C10.279 4.74954 8.73699 5.16263 7.38885 5.78808L10.0868 8.48602C10.6552 8.17583 11.3071 7.99954 12.0002 7.99954C14.2093 7.99954 16.0002 9.7904 16.0002 11.9995Z" fill="black"/>
</svg>
