<svg width="24" height="24" viewBox="0 0 24 24" fill="none" xmlns="http://www.w3.org/2000/svg">
<path d="M3.79888 2.90522C3.50599 2.61232 3.03112 2.61232 2.73822 2.90522C2.44533 3.19811 2.44533 3.67298 2.73822 3.96588L20.2941 21.5217C20.587 21.8146 21.0618 21.8146 21.3547 21.5217C21.6476 21.2288 21.6476 20.754 21.3547 20.4611L3.79888 2.90522Z" fill="black"/>
<path d="M1.03049 11.4787C1.51727 10.7347 2.72233 9.05789 4.56927 7.56471L8.10228 11.0977C8.0355 11.3876 8.00021 11.6894 8.00021 11.9995C8.00021 14.2087 9.79107 15.9995 12.0002 15.9995C12.3103 15.9995 12.6122 15.9643 12.902 15.8975L15.6215 18.6169C14.5231 19.0089 13.3139 19.2495 12.0002 19.2495C8.92264 19.2495 6.41818 17.9289 4.5701 16.435C2.72269 14.9417 1.51734 13.2645 1.03049 12.5204L1.01856 12.5022C0.949323 12.3966 0.886497 12.3008 0.856052 12.1718C0.831186 12.0664 0.831186 11.9327 0.856052 11.8273C0.886496 11.6983 0.949322 11.6025 1.01856 11.4969L1.03049 11.4787Z" fill="black"/>
<path d="M16.0002 11.9995C16.0002 12.4053 15.9398 12.797 15.8275 13.166L19.2444 16.583C19.2969 16.5419 19.3488 16.5007 19.4002 16.4593C21.2446 14.976 22.4542 13.3048 22.9538 12.5449L22.9668 12.5252C23.0405 12.4134 23.1073 12.3121 23.1374 12.1772C23.1621 12.0665 23.1591 11.9284 23.1297 11.8189C23.0938 11.6855 23.0223 11.5866 22.9434 11.4775L22.9293 11.4581C22.3888 10.7085 21.0822 9.03717 19.2042 7.55113C17.3276 6.06619 14.8591 4.74954 12.0002 4.74954C10.5882 4.74954 9.29682 5.02753 8.13414 5.47271L10.8337 8.1723C11.2028 8.05996 11.5944 7.99954 12.0002 7.99954C14.2093 7.99954 16.0002 9.7904 16.0002 11.9995Z" fill="black"/>
</svg>
