<svg width="24" height="24" viewBox="0 0 24 24" fill="none" xmlns="http://www.w3.org/2000/svg">
<path d="M3.44533 3.25877C3.3477 3.16114 3.18941 3.16114 3.09178 3.25877C2.99415 3.3564 2.99415 3.51469 3.09178 3.61232L20.6476 21.1682C20.7453 21.2658 20.9036 21.2658 21.0012 21.1682C21.0988 21.0705 21.0988 20.9123 21.0012 20.8146L3.44533 3.25877Z" fill="black"/>
<path d="M4.5701 7.56404C4.76269 7.40836 4.96241 7.25456 5.16917 7.10394L5.52719 7.46196C5.30498 7.62197 5.09069 7.78615 4.88442 7.95289C3.09237 9.40149 1.92007 11.0323 1.4489 11.7525C1.36256 11.8844 1.35083 11.9076 1.34269 11.9421C1.33564 11.972 1.33564 12.0271 1.34269 12.057C1.35083 12.0915 1.36256 12.1147 1.4489 12.2466C1.92007 12.9668 3.09237 14.5976 4.88442 16.0462C6.67579 17.4943 9.07258 18.7495 12.0002 18.7495C13.4704 18.7495 14.8067 18.433 15.9997 17.9344L16.3805 18.3153C15.0881 18.882 13.6239 19.2495 12.0002 19.2495C8.92264 19.2495 6.41818 17.9289 4.5701 16.435C2.72269 14.9417 1.51734 13.2645 1.03049 12.5204L1.01856 12.5022C0.949323 12.3966 0.886497 12.3008 0.856052 12.1718C0.831186 12.0664 0.831186 11.9327 0.856052 11.8273C0.886496 11.6983 0.949322 11.6025 1.01856 11.4969L1.03049 11.4787C1.51734 10.7346 2.72269 9.05739 4.5701 7.56404Z" fill="black"/>
<path d="M8.00021 11.9995C8.00021 11.3953 8.13418 10.8224 8.37404 10.3088L8.75394 10.6887C8.59031 11.0936 8.50021 11.536 8.50021 11.9995C8.50021 13.9325 10.0672 15.4995 12.0002 15.4995C12.4637 15.4995 12.9062 15.4094 13.311 15.2458L13.6909 15.6257C13.1774 15.8656 12.6044 15.9995 12.0002 15.9995C9.79107 15.9995 8.00021 14.2087 8.00021 11.9995Z" fill="black"/>
<path d="M10.0868 8.48602L10.4577 8.85692C10.923 8.62807 11.4466 8.49954 12.0002 8.49954C13.9332 8.49954 15.5002 10.0665 15.5002 11.9995C15.5002 12.5531 15.3717 13.0767 15.1428 13.5421L15.5137 13.913C15.8239 13.3446 16.0002 12.6927 16.0002 11.9995C16.0002 9.7904 14.2093 7.99954 12.0002 7.99954C11.3071 7.99954 10.6552 8.17583 10.0868 8.48602Z" fill="black"/>
<path d="M19.0869 16.0697C18.8292 16.2769 18.5591 16.4801 18.2768 16.676L18.6358 17.0351C18.9018 16.848 19.1567 16.6552 19.4002 16.4593C21.2446 14.976 22.4542 13.3048 22.9538 12.5449L22.9668 12.5252C23.0405 12.4134 23.1073 12.3121 23.1374 12.1772C23.1621 12.0665 23.1591 11.9284 23.1297 11.8189C23.0938 11.6855 23.0223 11.5866 22.9434 11.4775L22.9293 11.4581C22.3888 10.7085 21.0822 9.03717 19.2042 7.55113C17.3276 6.06619 14.8591 4.74954 12.0002 4.74954C10.279 4.74954 8.73699 5.16263 7.38885 5.78808L7.76645 6.16568C9.01796 5.60925 10.433 5.24954 12.0002 5.24954C14.7033 5.24954 17.0645 6.49561 18.8939 7.94322C20.7219 9.38971 21.9976 11.0208 22.5238 11.7505C22.6233 11.8885 22.6373 11.9134 22.6468 11.9488C22.6553 11.9803 22.6565 12.0365 22.6494 12.0683C22.6414 12.1041 22.6287 12.1293 22.536 12.2702C22.0522 13.0061 20.8758 14.6309 19.0869 16.0697Z" fill="black"/>
</svg>
