<svg width="24" height="24" viewBox="0 0 24 24" fill="none" xmlns="http://www.w3.org/2000/svg">
<path fill-rule="evenodd" clip-rule="evenodd" d="M16.7279 21.772C16.4518 21.772 16.2279 21.9958 16.2279 22.272C16.2279 22.5481 16.4518 22.772 16.7279 22.772H17.9279H17.9501C18.7714 22.772 19.4184 22.772 19.939 22.7294C20.4702 22.686 20.9138 22.5959 21.3169 22.3905C21.9754 22.0549 22.5109 21.5195 22.8464 20.8609C23.0518 20.4578 23.142 20.0143 23.1854 19.4831C23.2279 18.9624 23.2279 18.3155 23.2279 17.4942V17.4942V17.472V7.07197V7.04978V7.04975C23.2279 6.22849 23.2279 5.58152 23.1854 5.06086C23.142 4.52969 23.0518 4.08611 22.8464 3.68301C22.5109 3.02444 21.9754 2.48901 21.3169 2.15345C20.9138 1.94806 20.4702 1.8579 19.939 1.81451C19.4184 1.77197 18.7714 1.77197 17.9501 1.77197H17.9279H16.7279C16.4518 1.77197 16.2279 1.99583 16.2279 2.27197C16.2279 2.54811 16.4518 2.77197 16.7279 2.77197H17.9279C18.7762 2.77197 19.3824 2.77236 19.8576 2.81118C20.3269 2.84953 20.6242 2.92287 20.8629 3.04446C21.3333 3.28414 21.7157 3.66659 21.9554 4.137C22.077 4.37563 22.1503 4.67296 22.1887 5.14229C22.2275 5.61747 22.2279 6.22364 22.2279 7.07197L22.2279 17.472C22.2279 18.3203 22.2275 18.9265 22.1887 19.4017C22.1503 19.871 22.077 20.1683 21.9554 20.4069C21.7157 20.8774 21.3333 21.2598 20.8629 21.4995C20.6242 21.6211 20.3269 21.6944 19.8576 21.7328C19.3824 21.7716 18.7762 21.772 17.9279 21.772L16.7279 21.772ZM17.3112 11.2255C17.5064 11.4208 17.5064 11.7373 17.3112 11.9326L11.2372 18.0065C11.042 18.2018 10.7254 18.2018 10.5301 18.0065C10.3349 17.8113 10.3349 17.4947 10.5301 17.2994L15.7509 12.0787H1.27211C0.99597 12.0787 0.772112 11.8548 0.772112 11.5787C0.772112 11.3025 0.99597 11.0787 1.27211 11.0787H15.7501L10.5301 5.85868C10.3349 5.66342 10.3349 5.34683 10.5301 5.15157C10.7254 4.95631 11.042 4.95631 11.2372 5.15157L17.3112 11.2255Z" fill="black"/>
</svg>
