<svg width="24" height="24" viewBox="0 0 24 24" fill="none" xmlns="http://www.w3.org/2000/svg">
<path fill-rule="evenodd" clip-rule="evenodd" d="M16.7279 22.022C16.5898 22.022 16.4779 22.1339 16.4779 22.272C16.4779 22.41 16.5898 22.522 16.7279 22.522L17.9279 22.522L17.9394 22.522C18.7698 22.522 19.4082 22.522 19.9187 22.4803C20.4344 22.4381 20.8414 22.3522 21.2034 22.1677C21.8149 21.8562 22.3121 21.359 22.6237 20.7474C22.8081 20.3855 22.8941 19.9784 22.9362 19.4627C22.9779 18.9523 22.9779 18.3138 22.9779 17.4835L22.9779 17.472L22.9779 7.07197L22.9779 7.06043C22.9779 6.23011 22.9779 5.59166 22.9362 5.08122C22.8941 4.5655 22.8081 4.15849 22.6237 3.79651C22.3121 3.18498 21.8149 2.68779 21.2034 2.3762C20.8414 2.19176 20.4344 2.10581 19.9187 2.06368C19.4082 2.02197 18.7698 2.02197 17.9396 2.02197L17.9394 2.02197L17.9279 2.02197L16.7279 2.02197C16.5898 2.02197 16.4779 2.1339 16.4779 2.27197C16.4779 2.41004 16.5898 2.52197 16.7279 2.52197L17.9279 2.52197C18.7721 2.52197 19.3902 2.52217 19.8779 2.56202C20.3627 2.60162 20.6966 2.67917 20.9764 2.82171C21.4938 3.08536 21.9145 3.50605 22.1782 4.0235C22.3207 4.30325 22.3983 4.63714 22.4379 5.12194C22.4777 5.60965 22.4779 6.22777 22.4779 7.07197L22.4779 17.472C22.4779 18.3162 22.4777 18.9343 22.4379 19.422C22.3983 19.9068 22.3207 20.2407 22.1782 20.5204C21.9145 21.0379 21.4938 21.4586 20.9764 21.7222C20.6966 21.8648 20.3627 21.9423 19.8779 21.9819C19.3902 22.0218 18.7721 22.022 17.9279 22.022L16.7279 22.022ZM17.1344 11.4023C17.232 11.4999 17.232 11.6582 17.1344 11.7558L11.0605 17.8297C10.9628 17.9274 10.8045 17.9274 10.7069 17.8297C10.6093 17.7321 10.6093 17.5738 10.7069 17.4762L16.3544 11.8287L1.27211 11.8287C1.13404 11.8287 1.02211 11.7167 1.02211 11.5787C1.02211 11.4406 1.13404 11.3287 1.27211 11.3287L16.3537 11.3287L10.7069 5.6819C10.6093 5.58427 10.6093 5.42598 10.7069 5.32835C10.8045 5.23072 10.9628 5.23072 11.0605 5.32835L17.1344 11.4023Z" fill="black"/>
</svg>
