<svg width="25" height="25" viewBox="0 0 25 25" fill="none" xmlns="http://www.w3.org/2000/svg">
<path d="M7.74933 0.634768C8.71583 0.634768 9.49933 1.41827 9.49933 2.38477C9.49933 3.35127 8.71583 4.13477 7.74933 4.13477H6.54914C5.6803 4.13477 5.13344 4.13623 4.72101 4.16992C4.32933 4.20196 4.21498 4.25465 4.18195 4.27149C3.94683 4.39131 3.75588 4.58227 3.63605 4.81739C3.61922 4.85042 3.56652 4.96477 3.53449 5.35645C3.50079 5.76888 3.49933 6.31573 3.49933 7.18457V17.585C3.49933 18.4538 3.50079 19.0007 3.53449 19.4131C3.56652 19.8048 3.61922 19.9191 3.63605 19.9522C3.75587 20.1873 3.94683 20.3782 4.18195 20.498C4.21498 20.5149 4.32933 20.5676 4.72101 20.5996C5.13344 20.6333 5.6803 20.6348 6.54914 20.6348H7.74933C8.71583 20.6348 9.49933 21.4183 9.49933 22.3848C9.49933 23.3513 8.71583 24.1348 7.74933 24.1348H6.54914C5.73819 24.1348 5.02476 24.1359 4.43683 24.0879C3.82843 24.0382 3.2017 23.9272 2.59308 23.6172C1.69931 23.1618 0.972308 22.4348 0.516909 21.541C0.206854 20.9324 0.0959145 20.3057 0.046206 19.6973C-0.00180369 19.1093 -0.000669298 18.3959 -0.000669044 17.585V7.18457C-0.000669229 6.37363 -0.00180387 5.6602 0.046206 5.07227C0.0959147 4.46386 0.206853 3.83713 0.516909 3.22852C0.972307 2.33475 1.69931 1.60774 2.59308 1.15235C3.2017 0.84229 3.82843 0.731352 4.43683 0.681643C5.02476 0.633633 5.73819 0.634768 6.54914 0.634768H7.74933Z" fill="black"/>
<path d="M15.0862 4.7666C15.727 4.1261 16.7408 4.08587 17.428 4.64649L17.5609 4.7666L23.6351 10.8398C24.3184 11.5232 24.3182 12.632 23.6351 13.3154L17.5609 19.3887C16.8774 20.0721 15.7697 20.0721 15.0862 19.3887C14.4029 18.7053 14.4029 17.5974 15.0862 16.9141L18.1712 13.8281H6.49933C5.53296 13.8281 4.74954 13.0444 4.74933 12.0781C4.7495 11.1721 5.43817 10.4264 6.32062 10.3369L6.49933 10.3281H18.1732L15.0862 7.24121L14.9661 7.1084C14.4055 6.42108 14.4456 5.40732 15.0862 4.7666Z" fill="black"/>
</svg>
