<svg width="24" height="24" viewBox="0 0 24 24" fill="none" xmlns="http://www.w3.org/2000/svg">
<path d="M7.38403 2.63477C7.52211 2.63477 7.63403 2.52284 7.63403 2.38477C7.63403 2.24669 7.52211 2.13477 7.38403 2.13477H6.1725C5.34217 2.13477 4.70372 2.13477 4.19328 2.17647C3.67757 2.2186 3.27055 2.30455 2.90857 2.48899C2.29704 2.80058 1.79985 3.29777 1.48826 3.9093C1.30382 4.27128 1.21787 4.6783 1.17574 5.19401C1.13403 5.70445 1.13403 6.3429 1.13403 7.17323V17.5963C1.13403 18.4266 1.13403 19.0651 1.17574 19.5755C1.21787 20.0912 1.30382 20.4982 1.48826 20.8602C1.79985 21.4718 2.29704 21.9689 2.90856 22.2805C3.27055 22.465 3.67756 22.5509 4.19328 22.5931C4.70369 22.6348 5.34211 22.6348 6.17238 22.6348H7.38403C7.5221 22.6348 7.63403 22.5228 7.63403 22.3848C7.63403 22.2467 7.5221 22.1348 7.38403 22.1348H6.18403C5.33983 22.1348 4.72171 22.1346 4.234 22.0947C3.7492 22.0551 3.41531 21.9776 3.13556 21.835C2.61811 21.5714 2.19742 21.1507 1.93377 20.6332C1.79123 20.3535 1.71369 20.0196 1.67408 19.5348C1.63423 19.0471 1.63403 18.429 1.63403 17.5848L1.63403 7.18477C1.63403 6.34056 1.63423 5.72244 1.67408 5.23473C1.71369 4.74993 1.79123 4.41604 1.93377 4.13629C2.19742 3.61885 2.61811 3.19815 3.13556 2.9345C3.41531 2.79196 3.7492 2.71442 4.234 2.67481C4.72171 2.63496 5.33983 2.63477 6.18403 2.63477L7.38403 2.63477Z" fill="black"/>
<path d="M22.7912 12.2549C22.8888 12.1573 22.8888 11.999 22.7912 11.9014L16.7173 5.82744C16.6196 5.72981 16.4613 5.72981 16.3637 5.82744C16.2661 5.92507 16.2661 6.08336 16.3637 6.18099L22.0109 11.8281L4.92824 11.8281C4.79017 11.8281 4.67824 11.9401 4.67824 12.0781C4.67824 12.2162 4.79017 12.3281 4.92824 12.3281L22.0109 12.3281L16.3637 17.9753C16.2661 18.0729 16.2661 18.2312 16.3637 18.3288C16.4613 18.4265 16.6196 18.4265 16.7173 18.3288L22.7912 12.2549Z" fill="black"/>
</svg>
