<svg width="24" height="24" viewBox="0 0 24 24" fill="none" xmlns="http://www.w3.org/2000/svg">
<path d="M12 0C12.8284 0 13.5 0.671573 13.5 1.5V10.5H22.5C23.3284 10.5 24 11.1716 24 12C24 12.8284 23.3284 13.5 22.5 13.5H13.5V22.501L13.4922 22.6533C13.4154 23.4097 12.7767 24 12 24C11.2233 24 10.5846 23.4097 10.5078 22.6533L10.5 22.501V13.5H1.49902L1.34668 13.4922C0.59028 13.4154 0 12.7767 0 12C0 11.2233 0.59028 10.5846 1.34668 10.5078L1.49902 10.5H10.5V1.5C10.5 0.671573 11.1716 0 12 0Z" fill="black"/>
</svg>
