<svg width="24" height="24" viewBox="0 0 24 24" fill="none" xmlns="http://www.w3.org/2000/svg">
<path d="M20.2133 7.49264C20.9199 7.49264 21.4926 6.91987 21.4926 6.21332V2C21.4926 1.30964 20.933 0.75 20.2426 0.75C19.5523 0.75 18.9926 1.30964 18.9926 2V3.12162C17.0883 1.66701 14.7076 0.801758 12.125 0.801758C5.87135 0.801758 0.801758 5.87135 0.801758 12.125C0.801758 18.3787 5.87135 23.4483 12.125 23.4483C18.3787 23.4483 23.4483 18.3787 23.4483 12.125C23.4483 11.4346 22.8886 10.875 22.1983 10.875C21.5079 10.875 20.9483 11.4346 20.9483 12.125C20.9483 16.998 16.998 20.9483 12.125 20.9483C7.25206 20.9483 3.30176 16.998 3.30176 12.125C3.30176 7.25206 7.25206 3.30176 12.125 3.30176C14.0671 3.30176 15.8626 3.92861 17.3205 4.99264H16C15.3096 4.99264 14.75 5.55228 14.75 6.24264C14.75 6.933 15.3096 7.49264 16 7.49264L20.2133 7.49264Z" fill="black"/>
</svg>
