<svg width="24" height="24" viewBox="0 0 24 24" fill="none" xmlns="http://www.w3.org/2000/svg">
<path d="M20.2133 7.24264C20.7818 7.24264 21.2426 6.7818 21.2426 6.21332V2C21.2426 1.44772 20.7949 1 20.2426 1C19.6904 1 19.2426 1.44772 19.2426 2V3.64212C17.3186 2.02621 14.8355 1.05176 12.125 1.05176C6.00942 1.05176 1.05176 6.00942 1.05176 12.125C1.05176 18.2406 6.00942 23.1983 12.125 23.1983C18.2406 23.1983 23.1983 18.2406 23.1983 12.125C23.1983 11.5727 22.7505 11.125 22.1983 11.125C21.646 11.125 21.1983 11.5727 21.1983 12.125C21.1983 17.136 17.136 21.1983 12.125 21.1983C7.11399 21.1983 3.05176 17.136 3.05176 12.125C3.05176 7.11399 7.11399 3.05176 12.125 3.05176C14.3835 3.05176 16.4492 3.87629 18.0378 5.24264L16 5.24264C15.4477 5.24264 15 5.69036 15 6.24264C15 6.79493 15.4477 7.24264 16 7.24264L20.2133 7.24264Z" fill="black"/>
</svg>
