<svg width="24" height="24" viewBox="0 0 24 24" fill="none" xmlns="http://www.w3.org/2000/svg">
<path d="M20.2133 6.99264C20.6437 6.99264 20.9926 6.64373 20.9926 6.21332V2C20.9926 1.58579 20.6569 1.25 20.2426 1.25C19.8284 1.25 19.4926 1.58579 19.4926 2V4.19654C17.5612 2.40103 14.9714 1.30175 12.125 1.30175C6.14749 1.30175 1.30176 6.14749 1.30176 12.125C1.30176 18.1025 6.14749 22.9482 12.125 22.9482C18.1025 22.9482 22.9483 18.1025 22.9483 12.125C22.9483 11.7108 22.6125 11.375 22.1983 11.375C21.784 11.375 21.4483 11.7108 21.4483 12.125C21.4483 17.2741 17.2741 21.4482 12.125 21.4482C6.97592 21.4482 2.80176 17.2741 2.80176 12.125C2.80176 6.97591 6.97592 2.80175 12.125 2.80175C14.6789 2.80175 16.9929 3.82807 18.6775 5.49264L16 5.49264C15.5858 5.49264 15.25 5.82843 15.25 6.24264C15.25 6.65685 15.5858 6.99264 16 6.99264L20.2133 6.99264Z" fill="black"/>
</svg>
