<svg width="35" height="35" viewBox="0 0 35 35" fill="none" xmlns="http://www.w3.org/2000/svg">
<path fill-rule="evenodd" clip-rule="evenodd" d="M14.1118 30.795C10.4622 31.3843 6.90907 32.7179 3.69612 34.7878C3.2058 34.3785 2.73797 33.9467 2.28077 33.4895C1.82357 33.0323 1.38806 32.5607 0.982422 32.0741C3.04868 28.8575 4.38592 25.308 4.97524 21.6584C6.26264 26.0417 9.72482 29.5039 14.1118 30.795ZM5.08292 13.6751C4.59393 10.0271 3.36804 6.45246 1.39451 3.18295C1.67756 2.86302 1.9762 2.54964 2.28219 2.24365C2.66918 1.85665 3.07553 1.47978 3.48384 1.1231C6.8414 3.14869 10.52 4.38862 14.2686 4.84329C9.92806 6.0646 6.47171 9.40296 5.08292 13.6751ZM21.3599 4.77961C25.096 4.25873 28.747 2.96 32.0447 0.893799C32.558 1.31706 33.0443 1.7673 33.5236 2.24662C33.9992 2.72225 34.4532 3.21223 34.8727 3.7218C32.8102 7.02318 31.5078 10.6706 30.9869 14.4066C29.7505 9.71422 26.0523 6.01607 21.3599 4.77961ZM30.9232 21.4979C31.3779 25.2465 32.6178 28.9251 34.6434 32.2827C34.2904 32.6947 33.9136 33.101 33.5266 33.488C33.2206 33.794 32.9035 34.089 32.5836 34.372C29.3141 32.3985 25.7394 31.1726 22.0915 30.6836C26.3636 29.2948 29.7019 25.8385 30.9232 21.4979Z" fill="url(#paint0_linear_1909_5693)"/>
<defs>
<linearGradient id="paint0_linear_1909_5693" x1="7.72592" y1="34.5637" x2="23.1739" y2="11.6189" gradientUnits="userSpaceOnUse">
<stop stop-color="#FFD414"/>
<stop offset="1" stop-color="#C4FF46"/>
</linearGradient>
</defs>
</svg>
