<svg width="24" height="24" viewBox="0 0 24 24" fill="none" xmlns="http://www.w3.org/2000/svg">
<path d="M19.5606 6.12296L21.1241 4.8757C21.8114 5.73728 22.3705 6.69215 22.7847 7.71123L20.9319 8.46436C20.59 7.6231 20.1284 6.83463 19.5606 6.12296Z" fill="black"/>
<path d="M16.651 4.3252L18.3179 3.92373C19.3031 3.68643 20.4204 3.99358 21.1241 4.8757L19.5606 6.12296C19.3767 5.89236 19.073 5.79906 18.7862 5.86813L17.0913 6.27634C16.554 6.40577 15.9943 6.27666 15.5145 6.00226C15.0286 5.72437 14.628 5.3004 14.4692 4.76367L13.9893 3.14227C13.9049 2.85733 13.6694 2.64026 13.3752 2.59814C12.4633 2.4676 11.5366 2.46761 10.624 2.59819C10.3297 2.64029 10.0941 2.85738 10.0098 3.14237L9.52992 4.76366C9.37105 5.3004 8.97047 5.72437 8.48456 6.00226C8.00475 6.27666 7.44508 6.40577 6.90771 6.27634L5.21286 5.86813C4.92608 5.79906 4.62239 5.89236 4.43843 6.12296C3.87069 6.83463 3.40911 7.6231 3.06715 8.46436C2.95386 8.74305 3.0263 9.05973 3.23562 9.2758L4.42855 10.5072C4.81126 10.9022 4.97897 11.4505 4.97897 12.0006C4.97897 12.5506 4.81133 13.098 4.42874 13.4931L3.23554 14.7255C3.02627 14.9417 2.95393 15.2584 3.06731 15.5371C3.40925 16.3774 3.87076 17.1658 4.4384 17.878C4.62238 18.1088 4.92625 18.2023 5.21322 18.1332L5.68153 20.0776C4.69555 20.3151 3.57787 20.0072 2.87436 19.1245C2.18771 18.2629 1.62895 17.3087 1.21478 16.2908C0.780614 15.2237 1.07997 14.0766 1.79867 13.3343L2.96395 12.1308C2.97038 12.1082 2.97897 12.0647 2.97897 12.0006C2.97897 11.9363 2.97031 11.8925 2.9638 11.8696L1.79915 10.6674C1.08028 9.92535 0.780568 8.77843 1.21437 7.71123C1.62861 6.69215 2.18766 5.73728 2.87498 4.87571C3.57871 3.99358 4.69593 3.68643 5.68117 3.92373L7.34802 4.3252C7.37249 4.32041 7.4232 4.30528 7.49168 4.26612C7.56279 4.22545 7.60324 4.18762 7.62049 4.16788L8.09202 2.57476C8.38192 1.59527 9.21691 0.779141 10.3407 0.618353C11.4411 0.460903 12.5586 0.460854 13.6587 0.618328C14.7824 0.779203 15.6172 1.5954 15.907 2.57466L16.3786 4.16788C16.3958 4.18762 16.4363 4.22545 16.5074 4.26612C16.5759 4.30528 16.6266 4.32041 16.651 4.3252Z" fill="black"/>
<path fill-rule="evenodd" clip-rule="evenodd" d="M15.5146 17.9985C15.0285 18.2759 14.6281 18.6997 14.4693 19.2363L13.9894 20.8586C13.905 21.1438 13.6691 21.361 13.3746 21.403C12.4631 21.5327 11.5368 21.5327 10.6246 21.4029C10.3301 21.361 10.0941 21.1438 10.0097 20.8585L9.52975 19.2363C9.37099 18.6997 8.97053 18.2759 8.4845 17.9985C8.00465 17.7247 7.44522 17.5956 6.90808 17.725L5.21322 18.1332L5.68153 20.0776L7.34837 19.6761C7.37302 19.6809 7.42415 19.6961 7.49325 19.7356C7.56327 19.7755 7.60321 19.8127 7.62036 19.8322L8.09183 21.4258C8.38196 22.4065 9.21827 23.223 10.343 23.383C11.4419 23.5393 12.5578 23.5394 13.6564 23.383C14.7811 23.2229 15.6172 22.4064 15.9072 21.426L16.3787 19.8322C16.3959 19.8127 16.4358 19.7755 16.5058 19.7356L15.5146 17.9985Z" fill="black"/>
<path d="M18.7859 18.1332L17.091 17.725C16.5538 17.5956 15.9944 17.7247 15.5146 17.9985L16.5058 19.7356C16.5749 19.6961 16.626 19.6809 16.6507 19.6761L18.3175 20.0776L18.7859 18.1332Z" fill="black"/>
<path d="M20.7635 9.2758C20.9728 9.05973 21.0452 8.74305 20.9319 8.46436L22.7847 7.71123C23.2185 8.77842 22.9188 9.92535 22.1999 10.6674L20.7635 9.2758Z" fill="black"/>
<path d="M21.0353 11.8696L22.1999 10.6674L20.7635 9.2758L19.5705 10.5072C19.1878 10.9022 19.0201 11.4505 19.0201 12.0006C19.0201 12.5506 19.1877 13.098 19.5703 13.4931L20.081 14.0205C20.7088 14.669 20.9403 15.6288 20.5156 16.4252C20.243 16.9364 19.9235 17.4227 19.5607 17.878C19.3767 18.1088 19.0728 18.2023 18.7859 18.1332L18.3175 20.0776C19.3035 20.3151 20.4212 20.0072 21.1247 19.1245C21.5636 18.5738 21.9503 17.9852 22.2803 17.3663C23.1969 15.6476 22.6168 13.7644 21.5179 12.6294L21.0351 12.1308C21.0287 12.1082 21.0201 12.0647 21.0201 12.0006C21.0201 11.9363 21.0288 11.8925 21.0353 11.8696Z" fill="black"/>
<path fill-rule="evenodd" clip-rule="evenodd" d="M16.3308 12C16.3308 14.361 14.3918 16.275 11.9999 16.275C9.60799 16.275 7.66897 14.361 7.66897 12C7.66897 9.63897 9.60799 7.72499 11.9999 7.72499C14.3918 7.72499 16.3308 9.63897 16.3308 12ZM11.9999 14.275C13.3118 14.275 14.3308 13.232 14.3308 12C14.3308 10.768 13.3118 9.72499 11.9999 9.72499C10.688 9.72499 9.66897 10.768 9.66897 12C9.66897 13.232 10.688 14.275 11.9999 14.275Z" fill="black"/>
</svg>
