<svg width="24" height="24" viewBox="0 0 24 24" fill="none" xmlns="http://www.w3.org/2000/svg">
<path fill-rule="evenodd" clip-rule="evenodd" d="M14.4798 0.808512C14.3751 0.450172 14.08 0.176474 13.7105 0.123031C12.5763 -0.0410293 11.4239 -0.0410102 10.2888 0.123088C9.91923 0.176514 9.62402 0.450235 9.51931 0.808643L8.91548 2.87547C8.72039 3.54323 8.22541 4.07179 7.62317 4.42004C7.02126 4.76809 6.31634 4.93236 5.64086 4.76754L3.54701 4.25663C3.18406 4.16807 2.79922 4.28706 2.56823 4.58068C1.85983 5.48117 1.28419 6.47887 0.858137 7.54332C0.719243 7.89034 0.808592 8.28335 1.06692 8.5535L2.55477 10.1094C3.03541 10.612 3.24576 11.3053 3.24576 12.0007C3.24576 12.6962 3.0355 13.3883 2.55502 13.891L1.06682 15.4482C0.808554 15.7184 0.719325 16.1115 0.85834 16.4585C1.28436 17.5218 1.85993 18.5193 2.5682 19.4206C2.7992 19.7145 3.18428 19.8337 3.54746 19.7451L5.64133 19.2342C6.31651 19.0694 7.02113 19.2336 7.6231 19.5809C8.22548 19.9285 8.72031 20.4569 8.91527 21.1245L9.51916 23.1924C9.62395 23.5512 9.91964 23.8252 10.2896 23.8783C11.4241 24.0414 12.576 24.0414 13.7097 23.8784C14.0796 23.8252 14.3752 23.5513 14.4799 23.1926L15.0839 21.1245C15.2788 20.4569 15.7737 19.9285 16.376 19.5809C16.978 19.2336 17.6826 19.0694 18.3578 19.2342L20.4517 19.7451C20.8149 19.8337 21.2 19.7145 21.431 19.4206C21.8881 18.8389 22.2899 18.2172 22.632 17.5635C23.1518 16.5699 22.8662 15.379 22.0915 14.5683L21.4441 13.891C20.9636 13.3883 20.7534 12.6962 20.7534 12.0007C20.7534 11.3053 20.9637 10.612 21.4444 10.1094L22.9322 8.5535C23.1906 8.28335 23.2799 7.89034 23.141 7.54332C22.715 6.47887 22.1393 5.48117 21.4309 4.58068C21.1999 4.28706 20.8151 4.16807 20.4521 4.25663L18.3583 4.76754C17.6828 4.93236 16.9779 4.76809 16.376 4.42004C15.7737 4.07179 15.2788 3.54323 15.0837 2.87547L14.4798 0.808512ZM12 15.5C13.933 15.5 15.5 13.933 15.5 12C15.5 10.067 13.933 8.5 12 8.5C10.067 8.5 8.5 10.067 8.5 12C8.5 13.933 10.067 15.5 12 15.5Z" fill="black"/>
</svg>
