<svg width="24" height="24" viewBox="0 0 24 24" fill="none" xmlns="http://www.w3.org/2000/svg">
<path fill-rule="evenodd" clip-rule="evenodd" d="M16.0002 12C16.0002 14.2091 14.2093 16 12.0002 16C9.79107 16 8.00021 14.2091 8.00021 12C8.00021 9.79086 9.79107 8 12.0002 8C14.2093 8 16.0002 9.79086 16.0002 12ZM15.0002 12C15.0002 13.6569 13.6571 15 12.0002 15C10.3434 15 9.00021 13.6569 9.00021 12C9.00021 10.3431 10.3434 9 12.0002 9C13.6571 9 15.0002 10.3431 15.0002 12Z" fill="black"/>
<path fill-rule="evenodd" clip-rule="evenodd" d="M12.0002 4.5C8.84766 4.5 6.28938 5.85325 4.41294 7.37008C2.53785 8.8858 1.31597 10.5862 0.821289 11.3423L0.806073 11.3655C0.739823 11.466 0.653721 11.5966 0.612735 11.7703C0.578958 11.9135 0.578958 12.0865 0.612735 12.2297C0.65372 12.4034 0.739823 12.534 0.806073 12.6345L0.821289 12.6577C1.31597 13.4138 2.53785 15.1142 4.41293 16.6299C6.28938 18.1468 8.84766 19.5 12.0002 19.5C15.1357 19.5 17.6834 18.1613 19.5569 16.6546C21.4291 15.1489 22.6552 13.4546 23.1627 12.6827L23.1792 12.6578C23.2495 12.5517 23.3409 12.4138 23.3814 12.2321C23.4149 12.082 23.411 11.9029 23.3711 11.7544C23.3227 11.5747 23.2251 11.4402 23.1499 11.3368L23.1321 11.3123C22.5844 10.5528 21.2623 8.86136 19.3593 7.35554C17.4592 5.85194 14.937 4.5 12.0002 4.5ZM1.6581 11.8898C2.12143 11.1816 3.27721 9.574 5.04158 8.14777C6.80459 6.72264 9.14755 5.5 12.0002 5.5C14.6254 5.5 16.933 6.71078 18.7388 8.13972C20.5418 9.56644 21.802 11.1774 22.321 11.8972C22.3447 11.93 22.3622 11.9543 22.377 11.9755C22.3896 11.9937 22.3976 12.0058 22.4029 12.0143C22.3981 12.0229 22.3908 12.0351 22.3792 12.0534C22.3655 12.075 22.3492 12.0998 22.3271 12.1334C21.8512 12.8572 20.6914 14.4589 18.9302 15.8753C17.1704 17.2906 14.8374 18.5 12.0002 18.5C9.14755 18.5 6.80459 17.2774 5.04158 15.8522C3.27721 14.426 2.12143 12.8184 1.6581 12.1102C1.63745 12.0786 1.62234 12.0555 1.60961 12.0354C1.59913 12.0187 1.59252 12.0077 1.58818 12C1.59252 11.9923 1.59913 11.9813 1.60961 11.9646C1.62234 11.9445 1.63745 11.9214 1.6581 11.8898Z" fill="black"/>
</svg>
