<svg width="24" height="24" viewBox="0 0 24 24" fill="none" xmlns="http://www.w3.org/2000/svg">
<path fill-rule="evenodd" clip-rule="evenodd" d="M16.0002 12C16.0002 14.2091 14.2093 16 12.0002 16C9.79107 16 8.00021 14.2091 8.00021 12C8.00021 9.79086 9.79107 8 12.0002 8C14.2093 8 16.0002 9.79086 16.0002 12ZM14.5002 12C14.5002 13.3807 13.3809 14.5 12.0002 14.5C10.6195 14.5 9.50021 13.3807 9.50021 12C9.50021 10.6193 10.6195 9.5 12.0002 9.5C13.3809 9.5 14.5002 10.6193 14.5002 12Z" fill="black"/>
<path fill-rule="evenodd" clip-rule="evenodd" d="M12.0002 4.25C8.77269 4.25 6.16058 5.6359 4.25577 7.17565C2.35301 8.71375 1.11461 10.4374 0.612086 11.2054L0.596136 11.2296C0.531032 11.3279 0.421132 11.4938 0.369419 11.7129C0.32673 11.8938 0.32673 12.1062 0.369419 12.2871C0.421132 12.5062 0.531032 12.6721 0.596136 12.7704L0.612086 12.7946C1.11461 13.5626 2.35301 15.2862 4.25577 16.8243C6.16058 18.3641 8.77269 19.75 12.0002 19.75C15.2102 19.75 17.8116 18.379 19.7136 16.8494C21.6135 15.3214 22.8562 13.604 23.3716 12.82L23.3888 12.7942C23.4577 12.6907 23.5742 12.5159 23.6254 12.2866C23.6677 12.0971 23.663 11.877 23.6125 11.6894C23.5514 11.4625 23.427 11.2922 23.3534 11.1914L23.3349 11.166C22.78 10.3966 21.4424 8.68509 19.5145 7.15949C17.5907 5.63723 15.0148 4.25 12.0002 4.25ZM5.19874 15.6578C3.48388 14.2716 2.35154 12.7093 1.88481 12C2.35154 11.2907 3.48388 9.7284 5.19874 8.34219C6.93339 6.93999 9.22252 5.75 12.0002 5.75C14.5475 5.75 16.8015 6.92549 18.5837 8.33577C20.343 9.72794 21.5802 11.3002 22.1019 12.0208C21.624 12.744 20.4872 14.3023 18.7735 15.6805C17.0422 17.0729 14.7629 18.25 12.0002 18.25C9.22252 18.25 6.93339 17.06 5.19874 15.6578Z" fill="black"/>
</svg>
