<svg width="24" height="24" viewBox="0 0 24 24" fill="none" xmlns="http://www.w3.org/2000/svg">
<path fill-rule="evenodd" clip-rule="evenodd" d="M16.0002 12C16.0002 14.2091 14.2093 16 12.0002 16C9.79107 16 8.00021 14.2091 8.00021 12C8.00021 9.79086 9.79107 8 12.0002 8C14.2093 8 16.0002 9.79086 16.0002 12ZM14.0002 12C14.0002 13.1046 13.1048 14 12.0002 14C10.8956 14 10.0002 13.1046 10.0002 12C10.0002 10.8954 10.8956 10 12.0002 10C13.1048 10 14.0002 10.8954 14.0002 12Z" fill="black"/>
<path fill-rule="evenodd" clip-rule="evenodd" d="M12.0002 4C8.69772 4 6.03178 5.41855 4.09861 6.98123C2.16817 8.54171 0.913244 10.2885 0.402883 11.0686L0.387302 11.0921C0.322933 11.1887 0.188713 11.3902 0.126102 11.6555C0.0745025 11.8741 0.0745025 12.1259 0.126102 12.3445C0.188712 12.6098 0.32293 12.8113 0.3873 12.9079L0.402883 12.9314C0.913243 13.7115 2.16817 15.4583 4.09861 17.0188C6.03178 18.5814 8.69772 20 12.0002 20C15.2848 20 17.9398 18.5967 19.8703 17.0442C21.7979 15.494 23.0572 13.7533 23.5805 12.9574L23.5972 12.9324C23.6651 12.831 23.8074 12.6188 23.8694 12.3411C23.9205 12.1121 23.9149 11.851 23.8539 11.6245C23.7799 11.3496 23.628 11.1429 23.5555 11.0443L23.5377 11.0198C22.9756 10.2404 21.6226 8.50882 19.6696 6.96344C17.7223 5.42251 15.0927 4 12.0002 4ZM5.35591 15.4634C3.77172 14.1828 2.6913 12.7478 2.18536 12C2.6913 11.2522 3.77172 9.81719 5.35591 8.53661C7.06219 7.15733 9.2975 6 12.0002 6C14.4697 6 16.6699 7.1402 18.4286 8.53182C20.0567 9.82014 21.2329 11.2668 21.7966 12.0272C21.2798 12.7871 20.1967 14.2151 18.6169 15.4857C16.914 16.8552 14.6883 18 12.0002 18C9.2975 18 7.06219 16.8427 5.35591 15.4634Z" fill="black"/>
</svg>
