<svg width="24" height="24" viewBox="0 0 24 24" fill="none" xmlns="http://www.w3.org/2000/svg">
<path d="M3.79888 2.90522C3.50599 2.61232 3.03112 2.61232 2.73822 2.90522C2.44533 3.19811 2.44533 3.67298 2.73822 3.96588L20.2941 21.5217C20.587 21.8146 21.0618 21.8146 21.3547 21.5217C21.6476 21.2288 21.6476 20.754 21.3547 20.4611L3.79888 2.90522Z" fill="black"/>
<path d="M0.612086 11.205C1.09357 10.4691 2.25061 8.85594 4.02029 7.36927L5.08535 8.43434C3.43392 9.79691 2.34117 11.306 1.88481 11.9995C2.35154 12.7089 3.48388 14.2711 5.19874 15.6574C6.93339 17.0596 9.22252 18.2495 12.0002 18.2495C12.9046 18.2495 13.7573 18.1234 14.5558 17.9048L15.7522 19.1011C14.6158 19.5025 13.3629 19.7495 12.0002 19.7495C8.77269 19.7495 6.16058 18.3636 4.25577 16.8239C2.35301 15.2858 1.11461 13.5622 0.612086 12.7941L0.596136 12.7699C0.531032 12.6717 0.421132 12.5058 0.369419 12.2866C0.32673 12.1057 0.32673 11.8933 0.369419 11.7124C0.421132 11.4933 0.531032 11.3274 0.596136 11.2292L0.612086 11.205Z" fill="black"/>
<path d="M8.00021 11.9995C8.00021 11.7939 8.01572 11.5919 8.04565 11.3946L9.7585 13.1075C10.0016 13.5985 10.4013 13.9981 10.8923 14.2412L12.6051 15.9541C12.4078 15.984 12.2058 15.9995 12.0002 15.9995C9.79107 15.9995 8.00021 14.2087 8.00021 11.9995Z" fill="black"/>
<path d="M11.1132 8.09823L12.5827 9.56777C13.4956 9.78564 14.2141 10.5042 14.432 11.417L15.9015 12.8865C15.9661 12.6012 16.0002 12.3044 16.0002 11.9995C16.0002 9.7904 14.2093 7.99954 12.0002 7.99954C11.6954 7.99954 11.3985 8.03364 11.1132 8.09823Z" fill="black"/>
<path d="M18.7735 15.68L18.7299 15.715L19.7966 16.7817C21.6497 15.2709 22.8638 13.592 23.3716 12.8196L23.3888 12.7937C23.4577 12.6903 23.5742 12.5154 23.6254 12.2862C23.6677 12.0966 23.663 11.8765 23.6125 11.689C23.5514 11.4621 23.427 11.2917 23.3534 11.191L23.3349 11.1656C22.78 10.3961 21.4424 8.68463 19.5145 7.15903C17.5907 5.63677 15.0148 4.24954 12.0002 4.24954C10.5387 4.24954 9.20332 4.53374 8.0027 4.98772L9.1843 6.16932C10.0571 5.90483 10.9968 5.74954 12.0002 5.74954C14.5475 5.74954 16.8015 6.92503 18.5837 8.33531C20.343 9.72749 21.5802 11.2997 22.1019 12.0203C21.624 12.7435 20.4872 14.3019 18.7735 15.68Z" fill="black"/>
</svg>
