<svg width="24" height="24" viewBox="0 0 24 24" fill="none" xmlns="http://www.w3.org/2000/svg">
<path d="M3.79901 2.90522C3.50611 2.61232 3.03124 2.61232 2.73835 2.90522C2.44545 3.19811 2.44545 3.67298 2.73835 3.96588L20.2942 21.5217C20.5871 21.8146 21.062 21.8146 21.3549 21.5217C21.6478 21.2288 21.6478 20.754 21.3549 20.4611L3.79901 2.90522Z" fill="black"/>
<path d="M0.40967 10.9675C0.855564 10.2516 1.90927 8.70312 3.52265 7.22507L5.2924 8.99482C4.05521 10.1106 3.18125 11.2977 2.71772 11.9995C3.21896 12.7585 4.20013 14.0848 5.60153 15.2749C7.20224 16.6342 9.26998 17.7495 11.75 17.7495C12.4647 17.7495 13.1452 17.6569 13.7901 17.4925L15.7706 19.473C14.5682 19.9491 13.225 20.2495 11.75 20.2495C8.48106 20.2495 5.85972 18.7739 3.98331 17.1805C2.10881 15.5887 0.896688 13.8135 0.409669 13.0316L0.396096 13.0102C0.337131 12.9177 0.189897 12.6867 0.121812 12.3863C0.0658413 12.1393 0.0658413 11.8598 0.121812 11.6128C0.189897 11.3123 0.337133 11.0814 0.396098 10.9889L0.40967 10.9675Z" fill="black"/>
<path d="M8.00033 11.9995C8.00033 11.9031 8.00374 11.8075 8.01044 11.7129L12.287 15.9894C12.1923 15.9961 12.0967 15.9995 12.0003 15.9995C9.79119 15.9995 8.00033 14.2087 8.00033 11.9995Z" fill="black"/>
<path d="M11.4113 8.04261L15.9573 12.5886C15.9856 12.3964 16.0003 12.1997 16.0003 11.9995C16.0003 9.7904 14.2095 7.99954 12.0003 7.99954C11.8002 7.99954 11.6035 8.01424 11.4113 8.04261Z" fill="black"/>
<path d="M20.7609 12.0319C20.303 12.7211 19.4668 13.8503 18.2942 14.9256L20.0634 16.6947C21.6104 15.2575 22.6288 13.7693 23.0747 13.0568L23.0891 13.0342C23.1511 12.9376 23.3071 12.6944 23.3745 12.3796C23.4299 12.1209 23.4237 11.8305 23.3573 11.5743C23.2765 11.2625 23.1095 11.0252 23.0432 10.9311L23.0278 10.9091C22.4919 10.1289 21.1862 8.372 19.2925 6.79831C17.4081 5.23238 14.8213 3.74954 11.75 3.74954C10.3235 3.74954 9.02023 4.03057 7.84842 4.47977L9.84256 6.47391C10.448 6.32995 11.0841 6.24954 11.75 6.24954C14.003 6.24954 16.0376 7.34402 17.6947 8.72107C19.1377 9.92021 20.2035 11.2593 20.7609 12.0319Z" fill="black"/>
</svg>
