<svg width="24" height="24" viewBox="0 0 24 24" fill="none" xmlns="http://www.w3.org/2000/svg">
<path d="M3.62211 3.08199C3.42685 2.88673 3.11026 2.88673 2.915 3.08199C2.71974 3.27726 2.71974 3.59384 2.915 3.7891L20.4709 21.345C20.6661 21.5402 20.9827 21.5402 21.178 21.345C21.3732 21.1497 21.3732 20.8331 21.178 20.6378L3.62211 3.08199Z" fill="black"/>
<path d="M4.5701 7.56404C4.69894 7.45989 4.83098 7.35658 4.96618 7.2545L8.26835 10.5567C8.09518 11.0043 8.00021 11.4908 8.00021 11.9995C8.00021 14.2087 9.79107 15.9995 12.0002 15.9995C12.5089 15.9995 12.9955 15.9046 13.4431 15.7314L16.1324 18.4207C14.9016 18.9271 13.5209 19.2495 12.0002 19.2495C8.92264 19.2495 6.41818 17.9289 4.5701 16.435C2.72269 14.9417 1.51734 13.2645 1.03049 12.5204L1.01856 12.5022C0.949323 12.3966 0.886497 12.3008 0.856052 12.1718C0.831186 12.0664 0.831186 11.9327 0.856052 11.8273C0.886496 11.6983 0.949322 11.6025 1.01856 11.4969L1.03049 11.4787C1.51734 10.7346 2.72269 9.05739 4.5701 7.56404Z" fill="black"/>
<path d="M16.0002 11.9995C16.0002 12.5989 15.8684 13.1675 15.6322 13.6778L18.8418 16.8875C19.0341 16.7471 19.2202 16.6041 19.4002 16.4593C21.2446 14.976 22.4542 13.3048 22.9538 12.5449L22.9668 12.5252C23.0405 12.4134 23.1073 12.3121 23.1374 12.1772C23.1621 12.0665 23.1591 11.9284 23.1297 11.8189C23.0938 11.6855 23.0223 11.5866 22.9434 11.4775L22.9293 11.4581C22.3888 10.7085 21.0822 9.03717 19.2042 7.55113C17.3276 6.06619 14.8591 4.74954 12.0002 4.74954C10.3818 4.74954 8.92191 5.11473 7.6326 5.67828L10.3219 8.3676C10.8323 8.13136 11.4009 7.99954 12.0002 7.99954C14.2093 7.99954 16.0002 9.7904 16.0002 11.9995Z" fill="black"/>
</svg>
