<svg width="24" height="24" viewBox="0 0 24 24" fill="none" xmlns="http://www.w3.org/2000/svg">
<path d="M3.79888 2.90522C3.50599 2.61232 3.03112 2.61232 2.73822 2.90522C2.44533 3.19811 2.44533 3.67298 2.73822 3.96588L20.2941 21.5217C20.587 21.8146 21.0618 21.8146 21.3547 21.5217C21.6476 21.2288 21.6476 20.754 21.3547 20.4611L3.79888 2.90522Z" fill="black"/>
<path d="M0.402883 11.0681C0.872786 10.3499 1.97389 8.81212 3.65228 7.35482L5.07048 8.77302C3.64151 9.98996 2.66031 11.2976 2.18536 11.9995C2.6913 12.7473 3.77172 14.1824 5.35591 15.4629C7.06219 16.8422 9.2975 17.9995 12.0002 17.9995C12.7228 17.9995 13.4121 17.9168 14.0667 17.7692L15.686 19.3886C14.5656 19.7678 13.3349 19.9995 12.0002 19.9995C8.69772 19.9995 6.03178 18.581 4.09861 17.0183C2.16817 15.4578 0.913243 13.711 0.402883 12.931L0.3873 12.9075C0.32293 12.8108 0.188712 12.6094 0.126102 12.3441C0.0745025 12.1254 0.0745025 11.8737 0.126102 11.655C0.188713 11.3897 0.322933 11.1882 0.387302 11.0916L0.402883 11.0681Z" fill="black"/>
<path d="M8.00021 11.9995C8.00021 11.9031 8.00362 11.8075 8.01032 11.7129L12.2869 15.9894C12.1922 15.9961 12.0966 15.9995 12.0002 15.9995C9.79107 15.9995 8.00021 14.2087 8.00021 11.9995Z" fill="black"/>
<path d="M11.4111 8.04261L15.9571 12.5886C15.9855 12.3964 16.0002 12.1997 16.0002 11.9995C16.0002 9.7904 14.2093 7.99954 12.0002 7.99954C11.8001 7.99954 11.6034 8.01424 11.4111 8.04261Z" fill="black"/>
<path d="M21.7966 12.0267C21.2942 12.7655 20.2565 14.1358 18.7475 15.3789L20.1674 16.7989C21.9277 15.3139 23.0846 13.7112 23.5805 12.9569L23.5972 12.9319C23.6651 12.8306 23.8074 12.6183 23.8694 12.3406C23.9205 12.1117 23.9149 11.8506 23.8539 11.624C23.7799 11.3491 23.628 11.1424 23.5555 11.0438L23.5377 11.0194C22.9756 10.24 21.6226 8.50836 19.6696 6.96299C17.7223 5.42206 15.0927 3.99954 12.0002 3.99954C10.5662 3.99954 9.25221 4.26701 8.06612 4.6976L9.66348 6.29494C10.3979 6.10681 11.1774 5.99954 12.0002 5.99954C14.4697 5.99954 16.6699 7.13974 18.4286 8.53136C20.0567 9.81968 21.2329 11.2664 21.7966 12.0267Z" fill="black"/>
</svg>
