<svg width="24" height="24" viewBox="0 0 24 24" fill="none" xmlns="http://www.w3.org/2000/svg">
<path d="M3.62211 3.08199C3.42685 2.88673 3.11026 2.88673 2.915 3.08199C2.71974 3.27726 2.71974 3.59384 2.915 3.7891L20.4709 21.345C20.6661 21.5402 20.9827 21.5402 21.178 21.345C21.3732 21.1497 21.3732 20.8331 21.178 20.6378L3.62211 3.08199Z" fill="black"/>
<path d="M0.821289 11.3419C1.31409 10.5886 2.52855 8.89829 4.39153 7.38696L5.10272 8.09815L5.04158 8.14731C3.27721 9.57354 2.12143 11.1812 1.6581 11.8893C1.63745 11.9209 1.62234 11.944 1.60961 11.9642C1.59913 11.9808 1.59252 11.9919 1.58818 11.9995C1.59252 12.0072 1.59913 12.0183 1.60961 12.0349C1.62234 12.0551 1.63745 12.0782 1.6581 12.1097C2.12143 12.8179 3.27721 14.4255 5.04158 15.8518C6.80459 17.2769 9.14755 18.4995 12.0002 18.4995C13.0851 18.4995 14.0962 18.3227 15.0298 18.0252L15.8167 18.8121C14.6651 19.2364 13.3904 19.4995 12.0002 19.4995C8.84766 19.4995 6.28938 18.1463 4.41293 16.6295C2.53785 15.1137 1.31597 13.4133 0.821289 12.6572L0.806073 12.6341C0.739823 12.5336 0.65372 12.4029 0.612735 12.2292C0.578958 12.0861 0.578958 11.913 0.612735 11.7699C0.653721 11.5962 0.739823 11.4655 0.806073 11.365L0.821289 11.3419Z" fill="black"/>
<path d="M8.00021 11.9995C8.00021 11.6894 8.0355 11.3876 8.10228 11.0977L9.00021 11.9956L9.00021 11.9995C9.00021 13.6564 10.3434 14.9995 12.0002 14.9995L12.0041 14.9995L12.902 15.8975C12.6122 15.9643 12.3103 15.9995 12.0002 15.9995C9.79107 15.9995 8.00021 14.2087 8.00021 11.9995Z" fill="black"/>
<path d="M10.8337 8.1723L11.6781 9.01664C11.7839 9.00534 11.8914 8.99954 12.0002 8.99954C13.6571 8.99954 15.0002 10.3427 15.0002 11.9995C15.0002 12.1084 14.9944 12.2159 14.9831 12.3217L15.8275 13.166C15.9398 12.797 16.0002 12.4053 16.0002 11.9995C16.0002 9.7904 14.2093 7.99954 12.0002 7.99954C11.5944 7.99954 11.2028 8.05996 10.8337 8.1723Z" fill="black"/>
<path d="M18.9302 15.8748C18.8578 15.9331 18.7843 15.991 18.71 16.0485L19.4225 16.761C19.4677 16.7255 19.5125 16.6898 19.5569 16.6541C21.4291 15.1485 22.6552 13.4542 23.1627 12.6822L23.1792 12.6573C23.2495 12.5512 23.3409 12.4133 23.3814 12.2317C23.4149 12.0816 23.411 11.9024 23.3711 11.7539C23.3227 11.5742 23.2251 11.4398 23.1499 11.3363L23.1321 11.3118C22.5844 10.5523 21.2623 8.8609 19.3593 7.35508C17.4592 5.85148 14.937 4.49954 12.0002 4.49954C10.5115 4.49954 9.15538 4.80129 7.94096 5.27953L8.71905 6.05763C9.72177 5.70983 10.8172 5.49954 12.0002 5.49954C14.6254 5.49954 16.933 6.71032 18.7388 8.13927C20.5418 9.56598 21.802 11.177 22.321 11.8967C22.3447 11.9296 22.3622 11.9539 22.377 11.9751C22.3896 11.9933 22.3976 12.0054 22.4029 12.0139C22.3981 12.0224 22.3908 12.0346 22.3792 12.0529C22.3655 12.0745 22.3492 12.0993 22.3271 12.1329C21.8512 12.8568 20.6914 14.4584 18.9302 15.8748Z" fill="black"/>
</svg>
